<?xml version="1.0" standalone="no"?>
<!DOCTYPE svg PUBLIC "-//W3C//DTD SVG 20010904//EN"
 "http://www.w3.org/TR/2001/REC-SVG-20010904/DTD/svg10.dtd">
<svg version="1.0" xmlns="http://www.w3.org/2000/svg"
 width="2205.000000pt" height="2205.000000pt" viewBox="0 0 2205.000000 2205.000000"
 preserveAspectRatio="xMidYMid meet">
<metadata>
Created by potrace 1.14, written by Peter Selinger 2001-2017
</metadata>
<g transform="translate(0.000000,2205.000000) scale(0.100000,-0.100000)"
fill="#000000" stroke="none">
<path d="M13227 21542 c-26 -2 -45 -7 -43 -11 3 -4 -1 -8 -9 -8 -8 0 -12 4 -9
9 3 4 0 8 -5 8 -6 0 -11 -4 -11 -10 0 -5 -3 -9 -7 -9 -25 4 -53 -2 -48 -11 4
-6 -5 -10 -19 -10 -14 0 -26 -4 -26 -10 0 -5 -9 -10 -21 -10 -11 0 -17 -4 -14
-10 3 -6 -4 -10 -17 -10 -18 0 -20 -2 -8 -10 12 -8 9 -10 -13 -10 -16 0 -26
-4 -22 -10 3 -5 1 -10 -5 -10 -6 0 -9 -4 -6 -8 3 -5 -1 -9 -9 -10 -8 -1 -22
-3 -30 -4 -8 -1 -12 -5 -9 -10 3 -4 -3 -8 -13 -8 -15 0 -16 -2 -3 -10 13 -8
13 -10 -2 -10 -19 0 -68 -45 -68 -62 0 -6 -3 -8 -6 -5 -4 3 -19 -7 -34 -23
-15 -16 -30 -26 -34 -23 -3 3 -6 1 -6 -6 0 -20 -27 -43 -33 -28 -3 6 -6 2 -6
-10 -1 -13 -6 -23 -12 -23 -5 0 -7 -4 -4 -10 3 -5 1 -10 -6 -10 -17 0 -50 -41
-42 -53 3 -6 1 -7 -6 -3 -6 4 -14 0 -17 -8 -3 -9 -12 -16 -20 -16 -8 0 -14
-10 -14 -22 0 -19 -2 -20 -10 -8 -8 12 -10 11 -10 -7 0 -13 -4 -23 -10 -23 -5
0 -10 -7 -10 -16 0 -8 -4 -12 -10 -9 -5 3 -10 -3 -10 -15 0 -12 -4 -18 -10
-15 -5 3 -10 1 -10 -5 0 -6 -9 -20 -20 -32 -11 -12 -20 -28 -20 -35 0 -7 -4
-13 -10 -13 -5 0 -10 -9 -10 -20 0 -11 -3 -20 -7 -20 -10 0 -33 -49 -33 -69 0
-14 -1 -14 -10 -1 -8 12 -10 11 -10 -7 0 -13 -4 -23 -10 -23 -5 0 -10 -9 -10
-20 0 -11 -4 -20 -10 -20 -5 0 -10 -9 -10 -21 0 -11 -4 -17 -10 -14 -5 3 -10
-3 -10 -14 0 -12 -5 -21 -12 -21 -6 0 -8 -3 -5 -7 4 -3 0 -17 -9 -30 -8 -13
-13 -30 -11 -36 2 -7 -5 -20 -16 -29 -13 -12 -15 -18 -7 -18 10 0 8 -4 -4 -13
-9 -7 -18 -22 -19 -35 0 -12 -5 -22 -9 -22 -4 0 -8 -11 -8 -25 0 -14 -4 -25
-10 -25 -5 0 -10 -9 -10 -21 0 -11 -4 -18 -9 -15 -5 4 -8 -6 -6 -20 1 -15 -3
-28 -12 -31 -12 -5 -12 -7 -1 -14 10 -7 10 -9 1 -9 -8 0 -13 -13 -13 -32 0
-25 -3 -29 -10 -18 -5 8 -10 10 -10 5 0 -6 6 -17 13 -24 10 -11 10 -13 0 -7
-12 6 -19 -18 -14 -46 0 -5 -4 -8 -10 -8 -7 0 -9 -12 -7 -31 3 -21 0 -33 -9
-36 -12 -5 -12 -7 -1 -14 10 -7 10 -9 1 -9 -8 0 -13 -15 -13 -40 0 -22 -4 -40
-10 -40 -5 0 -10 -22 -10 -50 0 -32 -4 -50 -12 -50 -9 0 -9 -3 0 -12 7 -7 12
-17 12 -22 0 -6 -5 -4 -10 4 -7 11 -10 1 -10 -36 0 -27 -6 -56 -12 -63 -11
-11 -10 -12 0 -6 11 6 11 3 0 -15 -10 -18 -10 -24 0 -27 6 -3 12 -9 12 -14 0
-6 -4 -7 -10 -4 -10 6 -14 -45 -10 -109 1 -16 -4 -33 -12 -37 -11 -7 -11 -9 1
-9 11 0 11 -3 0 -17 -10 -11 -10 -14 -1 -9 7 4 12 1 12 -9 0 -9 -3 -14 -8 -11
-9 6 -9 -240 1 -250 13 -13 8 -56 -5 -48 -10 6 -10 5 -1 -7 10 -12 10 -18 0
-29 -9 -10 -9 -11 1 -6 9 5 12 -7 12 -48 0 -34 5 -56 13 -59 10 -4 10 -6 0 -6
-7 -1 -13 -6 -13 -12 0 -5 4 -8 8 -5 5 3 9 -1 9 -9 0 -8 -3 -12 -7 -10 -3 2
-6 -5 -7 -15 -1 -11 2 -22 8 -25 5 -4 9 -11 9 -16 0 -6 -5 -7 -11 -4 -7 5 -7
1 0 -14 29 -56 29 -59 18 -70 -8 -8 -8 -11 1 -11 7 0 11 -3 11 -7 -5 -29 2
-53 14 -47 7 5 6 0 -3 -11 -9 -11 -10 -16 -2 -11 9 5 12 -5 12 -38 0 -26 5
-46 11 -46 5 0 9 -10 7 -22 -2 -13 2 -22 8 -21 6 1 11 -4 11 -12 0 -8 -4 -12
-9 -9 -4 3 -8 0 -8 -5 0 -6 5 -11 10 -11 6 0 10 -11 10 -25 0 -25 17 -64 33
-76 5 -3 2 -9 -7 -12 -9 -4 -16 -1 -16 5 0 6 -3 8 -6 5 -4 -4 -1 -14 7 -23 13
-16 11 -17 -14 -12 -23 4 -27 2 -22 -11 5 -13 4 -14 -6 -3 -7 6 -21 12 -30 12
-10 0 -19 6 -22 13 -3 9 -8 9 -21 -2 -15 -12 -17 -12 -14 0 2 9 -4 13 -19 11
-13 -2 -23 2 -23 7 0 6 -16 11 -36 11 -19 0 -33 4 -30 9 3 4 -2 8 -12 8 -33 0
-43 3 -38 11 3 5 -1 9 -9 9 -8 0 -12 -3 -10 -7 2 -4 -2 -7 -10 -7 -8 0 -13 5
-12 11 1 6 -8 10 -20 8 -13 -2 -23 2 -23 7 0 6 -18 11 -40 11 -22 0 -40 5 -40
10 0 6 -5 10 -11 10 -5 0 -7 -6 -3 -12 5 -8 0 -7 -11 2 -11 9 -16 10 -11 3 4
-8 1 -13 -9 -13 -9 0 -13 5 -10 10 4 6 -15 10 -49 10 -30 0 -58 5 -61 10 -3 6
-19 10 -34 10 -15 0 -33 6 -40 13 -11 10 -13 10 -7 0 5 -8 1 -13 -9 -13 -9 0
-13 5 -10 10 4 6 -20 10 -64 10 -41 0 -71 4 -71 10 0 6 -5 10 -11 10 -5 0 -7
-4 -4 -10 7 -11 -8 -14 -19 -3 -10 11 -37 12 -30 2 3 -5 0 -9 -5 -9 -6 0 -11
5 -11 10 0 6 -5 10 -11 10 -5 0 -7 -4 -4 -10 3 -5 1 -10 -4 -10 -6 0 -11 5
-11 10 0 6 -8 10 -17 10 -15 0 -16 -2 -3 -10 13 -9 13 -10 0 -10 -9 0 -22 6
-28 12 -10 10 -15 10 -21 0 -5 -8 -21 -12 -37 -11 -22 3 -28 0 -26 -11 3 -12
1 -13 -9 -2 -15 14 -33 16 -24 2 4 -6 -5 -10 -20 -10 -15 0 -24 -4 -20 -10 3
-5 -1 -10 -9 -10 -9 0 -16 -6 -16 -12 0 -10 -2 -10 -9 0 -6 10 -10 9 -14 -7
-3 -12 -12 -21 -21 -21 -9 0 -16 -7 -16 -15 0 -8 -4 -15 -10 -15 -5 0 -10 -6
-10 -13 0 -7 -9 -19 -20 -27 -11 -8 -20 -22 -20 -32 0 -10 -4 -18 -10 -18 -5
0 -10 -9 -10 -20 0 -11 -4 -20 -10 -20 -5 0 -10 -5 -10 -11 0 -5 5 -7 10 -4 6
4 2 -9 -9 -28 -15 -27 -17 -38 -8 -47 9 -10 9 -11 0 -6 -10 5 -13 -7 -13 -49
0 -38 3 -54 11 -49 7 4 7 -1 -1 -16 -8 -15 -8 -20 -1 -16 7 5 11 -1 11 -14 0
-12 5 -18 10 -15 6 3 10 2 10 -4 0 -5 -6 -12 -12 -14 -10 -4 -10 -6 0 -6 6 -1
12 -10 12 -21 0 -12 7 -20 17 -20 9 0 14 -3 10 -6 -3 -4 0 -13 8 -20 8 -8 11
-22 8 -31 -4 -11 -3 -14 5 -9 7 4 12 1 12 -9 0 -22 24 -45 47 -46 17 0 17 -1
-1 -8 -17 -7 -17 -8 -2 -23 9 -9 16 -24 16 -33 0 -9 5 -13 10 -10 6 3 10 -3
10 -15 0 -12 5 -18 10 -15 6 3 10 -2 10 -12 0 -10 9 -25 20 -33 11 -8 20 -24
20 -35 0 -12 9 -31 20 -43 11 -12 20 -28 20 -37 0 -9 5 -13 10 -10 6 3 10 -3
10 -15 0 -12 5 -18 10 -15 6 4 10 -5 10 -20 0 -14 4 -24 8 -21 4 2 9 -7 10
-22 1 -15 7 -28 12 -30 6 -2 10 -13 10 -23 0 -14 4 -18 13 -13 8 5 8 2 -2 -9
-11 -14 -11 -17 0 -17 10 0 10 -3 1 -12 -7 -7 -12 -17 -12 -23 0 -5 5 -3 10 5
7 11 10 5 10 -23 0 -31 -4 -40 -21 -44 -16 -4 -17 -8 -7 -14 8 -6 1 -9 -22 -9
-26 0 -31 -3 -20 -10 12 -8 9 -10 -13 -10 -16 0 -26 -4 -22 -10 3 -5 -3 -10
-14 -10 -12 0 -21 -4 -21 -10 0 -5 -7 -10 -15 -10 -9 0 -18 -6 -21 -14 -3 -8
-14 -12 -27 -9 -18 4 -19 3 -7 -6 13 -9 11 -11 -7 -11 -12 0 -25 -4 -28 -10
-3 -5 -15 -10 -26 -10 -11 0 -18 -4 -15 -9 7 -11 -55 -42 -68 -34 -5 3 -6 1
-2 -5 6 -11 -13 -17 -37 -13 -5 1 -6 -3 -2 -9 3 -5 -1 -10 -10 -10 -9 0 -13
-5 -9 -11 4 -7 1 -10 -6 -7 -7 2 -24 -6 -38 -19 -14 -13 -33 -23 -43 -23 -11
0 -19 -4 -19 -10 0 -5 -6 -10 -13 -10 -7 0 -23 -9 -35 -20 -12 -11 -27 -20
-34 -20 -8 0 -20 -9 -28 -20 -8 -11 -24 -20 -35 -20 -16 0 -17 -2 -5 -10 12
-8 11 -10 -7 -10 -13 0 -23 -5 -23 -11 0 -5 -4 -7 -10 -4 -5 3 -10 -2 -11 -12
0 -10 -3 -13 -6 -6 -3 10 -7 10 -18 0 -7 -7 -11 -15 -8 -19 2 -5 -8 -8 -24 -8
-22 0 -25 -2 -13 -10 13 -8 12 -10 -3 -10 -10 0 -29 -11 -43 -25 -14 -14 -30
-22 -36 -19 -7 4 -8 2 -4 -4 4 -7 1 -12 -7 -12 -8 0 -18 -7 -21 -16 -3 -9 -12
-14 -20 -11 -7 3 -13 0 -12 -6 0 -7 -3 -13 -8 -14 -5 0 -13 -8 -18 -17 -5 -9
-16 -16 -23 -16 -9 0 -15 -10 -16 -22 0 -13 -3 -17 -6 -10 -4 9 -10 7 -22 -7
-10 -12 -21 -18 -25 -14 -3 3 -6 -1 -6 -10 0 -11 -8 -17 -22 -17 -19 0 -20 -2
-8 -10 12 -8 11 -10 -7 -10 -14 0 -23 -6 -23 -16 0 -9 -9 -18 -21 -21 -16 -4
-17 -8 -7 -14 9 -6 7 -9 -9 -9 -14 0 -23 -6 -23 -16 0 -8 -4 -12 -10 -9 -5 3
-10 -1 -10 -10 0 -9 -9 -19 -21 -22 -16 -4 -17 -8 -7 -14 10 -7 9 -9 -5 -9
-10 0 -15 -5 -12 -10 4 -6 3 -10 -2 -9 -21 4 -33 -2 -33 -17 0 -9 -9 -18 -20
-21 -11 -3 -20 -14 -20 -24 0 -11 -7 -19 -15 -19 -9 0 -18 -7 -22 -16 -3 -9
-31 -41 -63 -73 -31 -31 -59 -64 -63 -74 -3 -9 -13 -17 -22 -17 -8 0 -15 -9
-15 -21 0 -11 -4 -17 -10 -14 -5 3 -10 -1 -10 -9 0 -9 -4 -16 -9 -16 -5 0 -11
-9 -14 -20 -3 -11 -12 -20 -21 -20 -11 0 -16 -9 -16 -27 0 -22 -2 -25 -10 -13
-8 13 -10 12 -10 -2 0 -10 -4 -18 -10 -18 -5 0 -10 -10 -10 -22 0 -19 -2 -20
-10 -8 -8 12 -10 11 -10 -7 0 -13 -6 -23 -12 -23 -9 0 -8 -4 2 -10 12 -8 11
-10 -7 -10 -16 0 -23 -6 -23 -21 0 -11 -4 -17 -10 -14 -5 3 -10 -1 -10 -9 0
-8 -7 -22 -16 -30 -8 -9 -13 -16 -9 -16 3 0 0 -6 -7 -14 -7 -8 -16 -12 -20 -9
-5 2 -8 -8 -8 -22 0 -17 -4 -24 -12 -19 -7 5 -9 2 -5 -9 3 -9 0 -18 -9 -21 -8
-3 -14 -12 -14 -21 0 -8 -4 -15 -10 -15 -5 0 -10 -8 -10 -18 0 -10 -9 -24 -20
-32 -14 -10 -16 -16 -7 -22 9 -6 9 -8 0 -8 -7 0 -13 -7 -13 -16 0 -8 -4 -12
-10 -9 -5 3 -10 0 -10 -7 0 -20 -24 -68 -33 -68 -5 0 -6 -4 -3 -9 3 -5 -1 -11
-9 -15 -8 -3 -15 -14 -15 -25 0 -11 -5 -23 -10 -26 -6 -4 -8 -10 -5 -15 3 -5
-1 -14 -8 -22 -7 -7 -15 -17 -16 -23 -2 -5 -7 -9 -11 -8 -4 1 -7 -3 -7 -10 1
-32 -4 -48 -13 -42 -6 4 -10 -5 -10 -19 0 -14 -6 -26 -12 -26 -9 0 -8 -4 2
-10 10 -6 11 -10 3 -10 -7 0 -13 -7 -13 -16 0 -8 -4 -13 -8 -10 -4 2 -9 -7
-10 -21 -1 -14 -7 -32 -13 -39 -6 -7 -8 -18 -4 -24 3 -5 -2 -10 -12 -10 -15 0
-16 -2 -3 -10 10 -6 11 -10 3 -10 -7 0 -13 -9 -13 -20 0 -11 -4 -20 -10 -20
-5 0 -10 -9 -10 -20 0 -11 -4 -20 -10 -20 -5 0 -10 -12 -10 -26 0 -14 -4 -23
-8 -20 -4 2 -9 -10 -10 -27 -2 -17 -7 -36 -12 -41 -6 -6 -10 -22 -10 -37 0
-15 -4 -29 -10 -31 -5 -2 -11 -16 -13 -33 -4 -31 -12 -58 -28 -87 -5 -10 -9
-29 -9 -43 0 -15 -4 -24 -8 -21 -5 3 -9 -1 -9 -9 0 -8 5 -11 11 -8 6 4 5 0 -1
-8 -7 -9 -14 -24 -16 -35 -2 -10 -7 -26 -11 -35 -4 -9 -6 -20 -5 -25 1 -5 1
-25 0 -44 -1 -27 -4 -31 -11 -20 -7 11 -10 2 -10 -32 0 -26 -4 -50 -10 -53 -5
-3 -10 -29 -10 -56 0 -28 -4 -48 -8 -45 -5 3 -9 -1 -9 -9 0 -8 5 -11 11 -8 6
3 5 0 -1 -8 -7 -7 -13 -28 -13 -46 0 -20 -5 -33 -12 -33 -9 0 -8 -4 2 -10 10
-6 11 -10 3 -10 -9 0 -13 -22 -13 -76 0 -51 -3 -73 -11 -69 -6 4 -5 -2 2 -13
10 -16 10 -23 0 -35 -8 -11 -9 -17 -1 -22 8 -5 8 -11 -1 -21 -9 -11 -8 -14 2
-14 12 0 12 -2 0 -9 -11 -7 -11 -9 0 -14 10 -4 10 -6 2 -6 -17 -1 -17 -83 0
-100 10 -11 10 -13 0 -7 -10 5 -13 -8 -13 -53 0 -38 -4 -61 -12 -64 -10 -4
-10 -6 0 -6 8 -1 12 -18 12 -52 0 -37 -3 -48 -12 -43 -10 6 -10 5 -2 -7 7 -8
12 -52 13 -98 1 -56 6 -88 14 -93 9 -6 9 -8 0 -8 -7 0 -13 -7 -13 -16 0 -8 5
-12 11 -8 8 5 8 1 0 -14 -8 -15 -8 -22 2 -25 9 -4 9 -6 0 -6 -7 -1 -13 -6 -13
-12 0 -5 5 -7 10 -4 6 3 10 2 10 -4 0 -5 -6 -12 -12 -14 -10 -4 -9 -6 1 -6 11
-1 11 -4 0 -18 -10 -11 -10 -14 -1 -9 9 5 12 -3 12 -31 0 -22 6 -45 13 -52 9
-11 9 -13 0 -7 -9 5 -13 -1 -13 -18 0 -14 4 -26 9 -26 5 0 9 -21 9 -47 1 -26
7 -50 14 -55 10 -6 10 -8 -2 -8 -13 0 -13 -1 0 -10 13 -9 13 -10 0 -10 -13 0
-13 -2 -1 -9 10 -6 14 -27 13 -65 0 -31 4 -56 9 -56 5 0 9 -13 9 -28 0 -15 6
-34 13 -41 6 -8 7 -11 1 -8 -6 3 -11 0 -11 -8 0 -8 4 -12 9 -9 5 4 9 0 7 -7
-1 -8 -1 -30 0 -49 1 -24 4 -31 10 -21 6 9 9 2 9 -25 0 -21 5 -40 11 -42 6 -2
11 -19 11 -38 0 -25 4 -33 13 -28 10 6 10 4 0 -7 -7 -7 -13 -18 -13 -23 0 -6
5 -4 10 4 7 11 10 7 10 -17 0 -18 5 -33 10 -33 6 0 10 -17 10 -37 0 -28 3 -34
10 -23 8 12 10 9 10 -12 0 -16 5 -28 10 -28 6 0 10 -13 10 -30 0 -16 5 -30 10
-30 6 0 10 -9 10 -20 0 -11 5 -20 11 -20 8 0 7 -6 -2 -17 -10 -11 -10 -14 -1
-9 8 5 12 0 12 -13 0 -12 5 -21 10 -21 6 0 10 -12 10 -27 0 -22 2 -25 10 -13
7 11 10 5 10 -25 0 -30 3 -36 10 -25 8 12 10 9 10 -13 0 -17 4 -26 10 -22 6 4
10 3 9 -2 -4 -24 2 -53 11 -48 6 4 10 -5 10 -20 0 -15 4 -24 10 -20 6 4 10 -6
10 -22 0 -22 2 -25 10 -13 7 11 10 7 10 -17 0 -18 5 -33 10 -33 6 0 10 -9 10
-20 0 -11 5 -20 10 -20 6 0 10 -9 10 -20 0 -11 6 -20 14 -20 9 0 12 -7 9 -22
-4 -19 -3 -20 6 -8 9 12 11 10 11 -13 0 -16 4 -26 10 -22 6 3 10 -1 10 -10 0
-19 25 -47 34 -38 3 4 6 1 6 -5 0 -7 -5 -12 -12 -12 -6 0 -1 -8 10 -19 12 -10
22 -27 22 -37 0 -16 2 -17 10 -4 8 12 10 9 10 -13 0 -16 4 -26 10 -22 9 6 15
-17 10 -40 -1 -5 1 -7 5 -3 11 11 55 -39 56 -64 0 -22 1 -22 9 -3 8 19 9 19 9
-2 1 -13 7 -23 14 -23 8 0 7 -4 -3 -10 -12 -8 -11 -10 8 -10 13 0 22 -6 22
-16 0 -9 14 -29 30 -44 17 -15 30 -36 30 -47 0 -15 2 -16 10 -3 8 12 10 11 10
-5 0 -11 9 -27 20 -35 11 -8 20 -20 20 -28 0 -7 3 -11 8 -9 9 6 33 -19 25 -27
-4 -3 2 -6 13 -6 16 0 17 -2 4 -10 -12 -8 -11 -10 8 -10 13 0 22 -6 22 -16 0
-22 27 -48 33 -31 3 6 6 2 6 -10 1 -14 7 -23 17 -23 8 0 12 -4 9 -10 -3 -6 2
-10 11 -10 10 0 15 -3 11 -6 -7 -8 32 -48 56 -57 9 -3 17 -11 17 -17 0 -17 27
-40 47 -40 15 0 16 -2 3 -10 -13 -8 -12 -10 3 -10 10 0 15 -4 12 -10 -3 -6 2
-10 12 -10 10 0 25 -9 33 -19 7 -11 17 -18 22 -15 4 3 8 1 8 -5 0 -5 -6 -12
-12 -14 -7 -3 3 -6 22 -7 19 -1 29 -4 23 -7 -17 -6 9 -33 32 -33 9 0 13 -5 10
-10 -3 -6 2 -10 12 -10 15 0 16 -2 3 -10 -12 -7 -8 -10 15 -10 23 0 27 -3 15
-10 -12 -8 -9 -10 13 -10 21 0 27 -5 27 -22 0 -19 2 -20 10 -8 8 13 10 13 10
-2 0 -11 5 -15 14 -12 8 3 19 -3 26 -15 6 -12 17 -21 25 -21 8 0 15 -4 15 -10
0 -5 7 -10 16 -10 8 0 12 -4 9 -10 -3 -5 3 -10 14 -10 12 0 21 -7 21 -16 0 -8
5 -12 10 -9 6 3 10 1 10 -4 0 -6 7 -11 16 -11 9 0 29 -14 45 -31 16 -17 29
-26 29 -19 0 7 14 -2 30 -20 17 -18 30 -27 30 -21 0 6 5 11 11 11 5 0 8 -4 5
-8 -3 -5 7 -15 22 -23 15 -8 33 -20 40 -27 8 -7 18 -10 23 -7 5 4 9 1 9 -4 0
-6 10 -11 23 -11 18 0 19 -2 7 -10 -11 -7 -6 -10 20 -10 26 0 31 -3 20 -10
-12 -8 -9 -10 13 -10 16 0 26 -4 22 -10 -4 -6 7 -10 27 -10 25 0 29 -3 18 -10
-12 -8 -11 -10 8 -10 12 0 22 -4 22 -10 0 -5 9 -10 20 -10 11 0 20 -4 20 -10
0 -5 9 -10 20 -10 11 0 20 -4 20 -10 0 -5 9 -10 20 -10 11 0 20 -4 20 -10 0
-5 9 -10 21 -10 11 0 17 -4 14 -10 -4 -6 5 -10 19 -10 14 0 26 -4 26 -10 0 -5
9 -10 21 -10 11 0 17 -4 14 -10 -4 -6 5 -10 20 -10 15 0 24 -4 20 -10 -3 -5 1
-10 10 -10 9 0 13 -4 10 -10 -3 -5 -2 -10 4 -10 5 0 12 6 14 13 4 9 6 9 6 0 1
-7 11 -13 24 -13 18 0 19 -2 7 -10 -11 -7 -6 -10 20 -10 26 0 31 -3 20 -10
-12 -8 -9 -10 13 -10 16 0 26 -4 22 -10 -4 -6 6 -10 22 -10 20 0 24 -3 14 -9
-11 -7 -9 -10 10 -13 18 -2 25 -10 27 -30 3 -23 -1 -28 -18 -28 -12 0 -19 -4
-16 -8 2 -4 -6 -8 -19 -8 -13 0 -21 4 -19 8 3 4 1 8 -5 8 -5 0 -12 -6 -14 -12
-4 -10 -6 -10 -6 0 -1 6 -6 12 -12 12 -5 0 -8 -4 -5 -8 2 -4 -4 -8 -14 -8 -10
0 -16 4 -14 8 3 4 -1 8 -10 8 -8 0 -17 -6 -19 -12 -4 -10 -6 -10 -6 0 -1 16
-38 16 -44 0 -4 -10 -6 -10 -6 0 -1 8 -17 12 -46 12 -25 0 -45 5 -45 10 0 6
-15 10 -34 10 -19 0 -38 4 -41 10 -3 5 -17 10 -31 10 -13 0 -24 5 -24 10 0 6
-16 10 -36 10 -21 0 -33 4 -29 10 4 6 -8 10 -29 10 -20 0 -36 5 -36 10 0 6
-18 10 -41 10 -24 0 -38 4 -34 10 4 6 -8 10 -29 10 -20 0 -36 4 -36 8 0 5 -7
9 -15 10 -8 1 -22 3 -30 4 -8 1 -15 5 -15 10 0 4 -9 8 -20 8 -11 0 -20 5 -20
10 0 6 -3 9 -7 9 -5 -1 -15 -1 -23 0 -13 1 -13 2 0 11 8 5 10 10 5 10 -6 0
-17 -6 -24 -12 -11 -10 -13 -10 -7 0 6 11 -11 17 -36 13 -5 0 -8 3 -8 9 0 5
-7 10 -16 10 -9 0 -12 5 -8 13 6 10 4 10 -7 0 -7 -7 -18 -13 -24 -13 -5 0 -3
5 5 10 12 8 10 10 -8 10 -15 0 -21 4 -16 12 5 8 2 9 -9 5 -9 -3 -23 0 -31 8
-8 8 -26 15 -40 15 -16 0 -26 6 -26 14 0 9 -7 12 -22 9 -19 -4 -20 -3 -8 6 12
9 11 11 -7 11 -13 0 -23 5 -23 10 0 6 -9 10 -19 10 -11 0 -21 5 -23 11 -2 6
-13 13 -23 14 -36 4 -65 17 -59 26 3 5 -4 9 -15 9 -12 0 -21 5 -21 10 0 6 -9
10 -21 10 -11 0 -17 5 -14 10 4 6 -5 10 -20 10 -15 0 -24 4 -20 10 3 6 -1 10
-9 10 -9 0 -16 5 -16 10 0 6 -9 10 -19 10 -11 0 -21 4 -23 9 -1 5 -10 11 -18
13 -8 2 -22 11 -31 21 -9 9 -23 17 -30 17 -8 0 -21 9 -29 20 -8 11 -26 20 -40
21 -23 0 -23 1 -5 9 20 9 20 9 0 9 -11 1 -27 10 -35 21 -8 11 -21 20 -30 20
-9 0 -22 9 -30 20 -8 11 -22 20 -32 20 -10 0 -18 5 -18 10 0 6 -7 10 -16 10
-8 0 -12 5 -9 10 3 6 -4 10 -17 10 -18 0 -20 2 -8 10 12 8 11 10 -7 10 -14 0
-23 6 -23 16 0 8 -4 12 -10 9 -5 -3 -10 -1 -10 4 0 6 -9 11 -20 11 -12 0 -20
7 -20 17 0 9 -3 13 -6 10 -4 -3 -18 6 -33 21 -14 15 -32 28 -40 30 -7 1 -19 9
-27 17 -11 10 -11 15 -1 19 6 4 2 4 -11 2 -17 -3 -22 -1 -18 10 3 8 0 14 -7
14 -7 0 -19 9 -27 20 -8 11 -23 20 -33 20 -10 0 -15 5 -12 10 3 6 -4 10 -17
11 -22 0 -22 1 -3 9 19 8 19 9 -2 9 -13 1 -23 6 -23 12 0 5 -4 7 -10 4 -5 -3
-10 -1 -10 5 0 19 -48 61 -53 47 -3 -7 -6 -2 -6 11 -1 15 -7 22 -21 22 -13 0
-20 7 -20 20 0 13 -7 20 -20 20 -11 0 -20 7 -20 16 0 8 -4 12 -10 9 -6 -3 -10
4 -11 17 0 13 -3 17 -6 11 -3 -8 -19 2 -43 27 -24 25 -40 35 -43 27 -3 -6 -6
-2 -6 11 -1 13 -5 20 -11 17 -5 -3 -10 1 -10 9 0 10 -9 16 -22 16 -19 0 -20 2
-8 10 12 8 11 10 -7 10 -14 0 -23 6 -23 15 0 9 -8 19 -17 22 -10 4 -25 15 -34
25 -9 10 -25 18 -35 19 -11 0 -13 3 -6 6 6 2 12 9 12 14 0 6 -4 7 -10 4 -5 -3
-10 -1 -10 4 0 6 -10 11 -22 11 -19 0 -20 2 -8 10 13 8 12 10 -3 10 -10 0 -15
5 -12 10 3 6 -3 10 -15 10 -12 0 -18 5 -15 10 3 6 -1 10 -9 10 -9 0 -16 7 -16
16 0 8 -4 13 -8 10 -5 -3 -14 4 -22 14 -8 10 -17 17 -22 14 -4 -3 -8 2 -8 10
0 9 -8 16 -17 16 -15 0 -16 2 -3 10 13 8 12 10 -2 10 -10 0 -18 6 -18 13 0 8
-4 7 -10 -3 -8 -13 -10 -12 -10 4 0 11 -3 17 -6 13 -4 -3 -24 12 -44 33 -21
22 -44 40 -50 40 -6 0 -18 6 -26 14 -11 11 -11 16 -1 19 6 3 2 6 -11 6 -13 1
-20 5 -17 11 3 6 -1 10 -9 10 -9 0 -16 5 -16 10 0 6 -10 10 -22 10 -19 0 -20
2 -8 10 12 8 11 10 -7 10 -13 0 -23 5 -23 11 0 5 -4 7 -10 4 -6 -3 -10 1 -10
9 0 10 -9 16 -22 16 -19 0 -20 2 -8 10 12 8 11 10 -7 10 -13 0 -23 5 -23 11 0
5 -4 7 -10 4 -6 -3 -10 1 -10 10 0 9 -4 14 -9 10 -5 -3 -16 2 -24 10 -9 8 -24
15 -34 15 -15 0 -16 2 -3 10 12 8 10 10 -8 10 -13 0 -20 4 -17 10 4 6 -6 10
-22 10 -22 0 -25 2 -13 10 12 8 9 10 -13 10 -16 0 -26 4 -22 10 3 6 -2 10 -12
10 -10 0 -25 9 -33 20 -8 11 -22 20 -32 20 -10 0 -18 5 -18 10 0 6 -7 10 -16
10 -9 0 -12 5 -8 13 5 7 0 6 -11 -3 -10 -8 -16 -10 -13 -5 3 6 0 16 -8 23 -10
9 -14 10 -14 1 0 -7 -8 -2 -19 9 -10 12 -26 22 -35 22 -9 0 -16 5 -16 10 0 6
-12 10 -26 10 -14 0 -23 4 -19 10 6 10 -7 14 -34 11 -7 -2 -10 2 -6 8 4 7 -6
11 -27 11 -25 0 -29 3 -18 10 11 7 7 10 -18 10 -20 0 -31 4 -27 10 4 6 -5 10
-19 10 -14 0 -26 5 -26 10 0 6 -13 10 -30 10 -16 0 -30 5 -30 10 0 6 -9 10
-20 10 -12 0 -32 7 -45 16 -14 9 -25 13 -25 9 0 -3 -7 0 -15 9 -9 8 -23 12
-32 9 -11 -4 -14 -3 -9 5 6 11 -21 17 -71 15 -7 -1 -10 3 -7 8 3 5 -9 9 -25 9
-17 0 -31 5 -31 10 0 6 -14 10 -31 10 -17 0 -28 4 -24 10 4 6 -5 10 -19 10
-14 0 -26 6 -26 13 0 8 -4 7 -10 -3 -8 -12 -13 -13 -30 -2 -11 6 -32 12 -47
13 -25 0 -26 1 -8 9 15 6 6 9 -32 9 -28 1 -55 6 -58 11 -3 6 -12 10 -18 10 -7
0 -6 -4 3 -10 12 -7 10 -9 -7 -7 -12 0 -19 5 -17 9 5 8 -10 12 -33 9 -7 -1
-13 3 -13 9 0 5 -5 10 -11 10 -5 0 -7 -4 -4 -10 3 -5 1 -10 -4 -10 -6 0 -11 5
-11 10 0 6 -13 10 -28 10 -15 0 -34 6 -41 13 -11 9 -13 9 -7 0 4 -8 1 -13 -8
-13 -8 0 -17 6 -19 13 -4 10 -6 10 -6 0 -1 -7 -6 -13 -12 -13 -5 0 -7 5 -4 10
3 6 1 10 -4 10 -6 0 -11 -6 -11 -12 0 -10 -3 -9 -9 1 -7 11 -9 11 -14 0 -4
-10 -6 -10 -6 -1 -1 8 -17 12 -46 12 -25 0 -45 5 -45 10 0 6 -5 10 -11 10 -5
0 -7 -4 -4 -10 3 -5 1 -10 -4 -10 -6 0 -11 4 -11 9 0 5 -28 10 -62 10 -35 1
-72 1 -83 2 -11 0 -23 5 -27 12 -5 8 -8 5 -9 -8 l0 -20 -9 20 c-5 11 -9 14 -9
8 -1 -7 -7 -13 -15 -13 -8 0 -17 6 -19 13 -4 10 -6 10 -6 0 -1 -7 -7 -13 -15
-13 -8 0 -17 6 -19 13 -4 10 -6 10 -6 0 -1 -7 -13 -13 -27 -13 -14 0 -23 4
-20 8 3 5 -1 9 -9 9 -8 0 -12 -4 -9 -9 3 -4 -2 -8 -11 -8 -10 0 -14 5 -9 13 6
10 4 10 -7 0 -16 -16 -83 -18 -74 -2 4 6 -2 5 -13 -2 -17 -11 -24 -10 -38 2
-11 9 -15 9 -10 2 5 -9 0 -13 -16 -13 -13 0 -30 6 -37 13 -11 10 -13 10 -7 0
8 -14 2 -16 -68 -13 -26 1 -46 -2 -43 -7 3 -5 -4 -10 -16 -10 -17 -2 -19 0 -7
7 13 8 12 10 -2 10 -10 0 -18 -5 -18 -10 0 -12 -22 -9 -32 5 -5 6 -8 5 -8 -2
0 -8 -15 -13 -41 -13 -22 0 -38 -4 -35 -8 3 -5 -1 -9 -9 -9 -8 0 -12 4 -9 9 3
4 0 8 -5 8 -6 0 -11 -4 -11 -10 0 -5 -5 -10 -11 -10 -5 0 -8 4 -5 8 3 5 -1 9
-9 9 -8 0 -12 -4 -9 -9 3 -4 -13 -8 -36 -8 -25 0 -39 -4 -35 -10 3 -5 -1 -10
-10 -10 -10 0 -13 5 -9 13 5 7 0 6 -11 -3 -10 -8 -20 -14 -22 -12 -10 7 -53 0
-48 -8 3 -5 1 -10 -4 -10 -6 0 -11 5 -11 10 0 6 -5 10 -11 10 -5 0 -7 -4 -4
-10 4 -6 -7 -10 -25 -10 -18 0 -29 -4 -25 -10 4 -6 -8 -10 -30 -10 -22 0 -34
-4 -30 -10 4 -6 -8 -10 -30 -10 -25 0 -34 -4 -29 -12 5 -8 2 -9 -9 -5 -9 3
-19 2 -22 -4 -4 -5 -10 -7 -15 -4 -5 3 -25 -4 -44 -15 -20 -11 -39 -21 -44
-22 -4 -2 -6 -7 -4 -12 2 -5 -5 -3 -14 5 -12 9 -15 9 -10 2 5 -9 0 -13 -18
-13 -14 0 -30 -8 -35 -17 -6 -10 -11 -13 -11 -8 0 6 -5 3 -10 -5 -8 -12 -10
-12 -10 -1 0 9 -7 6 -20 -9 -13 -15 -20 -18 -21 -9 0 8 -5 3 -10 -10 -8 -20
-12 -21 -25 -10 -8 7 -14 8 -12 3 2 -5 -1 -11 -7 -14 -5 -3 -21 -17 -35 -31
-14 -14 -33 -28 -42 -32 -10 -3 -18 -11 -18 -17 0 -6 -12 -23 -27 -37 -16 -14
-27 -29 -25 -34 1 -5 -5 -12 -13 -15 -8 -4 -15 -15 -15 -26 0 -11 -7 -26 -15
-35 -8 -8 -13 -19 -10 -24 4 -5 0 -9 -7 -9 -9 0 -9 -3 2 -10 8 -5 11 -10 5
-10 -18 0 -34 -47 -21 -61 8 -9 8 -10 -2 -5 -8 5 -12 0 -12 -16 0 -18 2 -20
10 -8 5 8 10 10 10 5 0 -6 -5 -16 -12 -23 -9 -9 -9 -12 0 -12 7 0 12 -5 12
-11 0 -5 -4 -7 -10 -4 -6 3 -10 -1 -10 -10 0 -9 4 -14 8 -11 5 3 9 -1 9 -9 0
-8 -3 -12 -7 -10 -4 2 -7 -2 -7 -10 0 -8 4 -12 9 -9 4 3 8 -9 8 -26 0 -22 4
-29 13 -24 10 6 10 4 0 -7 -7 -7 -13 -18 -13 -23 0 -6 5 -4 10 4 8 12 10 11
10 -7 0 -12 6 -24 13 -26 9 -4 9 -6 -1 -6 -10 -1 -10 -4 0 -15 7 -8 18 -11 23
-8 6 3 3 -3 -5 -13 -9 -11 -10 -16 -2 -11 6 4 12 2 12 -4 0 -15 46 -60 54 -53
3 4 6 -4 6 -16 0 -12 4 -19 10 -16 6 3 10 1 10 -5 0 -6 4 -9 9 -6 5 3 11 -3
14 -14 3 -12 -1 -24 -11 -30 -10 -5 -12 -10 -4 -10 6 0 12 -9 12 -21 0 -13 -4
-18 -12 -13 -10 6 -10 4 -1 -7 7 -7 13 -22 13 -33 0 -17 -2 -18 -10 -6 -9 13
-10 13 -10 0 0 -8 -13 -26 -30 -40 -16 -14 -30 -30 -30 -37 0 -7 -7 -13 -16
-13 -8 0 -13 -4 -10 -8 3 -5 -4 -14 -14 -22 -10 -8 -16 -18 -13 -24 4 -6 0 -5
-8 1 -13 10 -16 10 -17 -2 -1 -8 -3 -21 -4 -29 -1 -8 -4 -15 -7 -14 -3 0 -13
0 -21 -1 -13 -1 -13 -2 0 -11 12 -8 10 -10 -10 -10 -20 0 -22 -2 -10 -10 12
-8 11 -10 -7 -10 -16 0 -23 -6 -23 -20 0 -11 -7 -20 -16 -20 -8 0 -12 -4 -9
-10 3 -5 1 -10 -4 -10 -6 0 -11 -10 -12 -22 0 -22 -1 -22 -9 -3 l-9 20 -1 -20
c-2 -11 -2 -23 -1 -27 0 -5 -5 -7 -12 -5 -6 1 -11 -4 -10 -10 2 -7 -4 -13 -12
-13 -9 0 -20 -11 -25 -24 -5 -13 -14 -27 -20 -31 -5 -3 -7 -11 -4 -17 4 -7 2
-8 -4 -4 -7 4 -12 2 -12 -4 0 -6 -5 -8 -12 -4 -7 4 -8 3 -4 -4 4 -6 -2 -17
-13 -23 -11 -7 -17 -19 -13 -27 3 -10 1 -13 -6 -8 -7 4 -12 1 -12 -9 0 -9 -4
-13 -10 -10 -6 3 -10 -4 -10 -17 0 -18 -2 -20 -10 -8 -7 12 -10 8 -10 -14 0
-16 -3 -27 -6 -23 -8 8 -34 -18 -34 -33 0 -6 -5 -8 -12 -4 -6 4 -8 3 -5 -3 4
-6 0 -16 -8 -23 -8 -7 -15 -19 -15 -27 0 -7 -6 -16 -14 -19 -9 -3 -12 -12 -9
-21 4 -11 2 -14 -5 -9 -8 5 -12 0 -12 -13 0 -12 -4 -21 -10 -21 -5 0 -10 -7
-10 -16 0 -9 -5 -12 -12 -8 -8 5 -9 0 -6 -14 4 -15 2 -22 -8 -22 -8 0 -14 -7
-14 -16 0 -9 -10 -25 -22 -35 -11 -11 -18 -19 -14 -19 4 0 0 -7 -8 -16 -9 -8
-16 -22 -16 -30 0 -8 -4 -13 -8 -10 -4 2 -9 -7 -10 -21 -1 -14 -11 -33 -22
-43 -11 -10 -20 -30 -20 -46 0 -22 -3 -26 -10 -14 -8 12 -10 10 -10 -11 0 -14
-9 -35 -20 -46 -14 -15 -16 -23 -7 -26 9 -4 9 -6 0 -6 -7 -1 -13 -11 -13 -23
0 -19 -2 -20 -10 -8 -8 12 -10 9 -10 -13 0 -17 -4 -26 -10 -22 -6 4 -10 3 -9
-2 5 -26 -2 -63 -11 -58 -5 3 -10 -3 -10 -14 0 -10 -6 -22 -12 -24 -10 -4 -10
-6 0 -6 8 -1 6 -8 -8 -23 -11 -12 -20 -36 -20 -52 0 -24 -3 -27 -10 -16 -7 11
-10 5 -10 -22 0 -21 -4 -38 -10 -38 -5 0 -10 -9 -10 -19 0 -11 -5 -23 -10 -26
-6 -3 -10 -17 -10 -31 0 -18 -4 -23 -12 -18 -8 5 -7 0 2 -11 9 -11 10 -16 3
-11 -9 5 -13 -1 -13 -19 0 -15 -4 -24 -10 -20 -6 4 -10 -7 -10 -25 0 -17 -4
-29 -8 -26 -4 2 -9 -12 -10 -32 -2 -20 -7 -41 -12 -46 -6 -6 -10 -25 -10 -44
0 -23 -4 -31 -12 -26 -7 5 -9 2 -5 -8 3 -9 0 -24 -8 -34 -10 -15 -11 -22 -2
-33 9 -12 9 -13 0 -7 -9 5 -13 -1 -13 -23 0 -16 -6 -32 -12 -34 -10 -4 -10 -6
0 -6 6 -1 12 -6 12 -12 0 -5 -5 -7 -10 -4 -6 4 -10 -8 -10 -29 0 -22 -5 -36
-12 -36 -9 0 -8 -4 2 -10 10 -6 11 -10 3 -10 -8 0 -13 -13 -13 -30 0 -16 -4
-30 -10 -30 -5 0 -10 -5 -10 -11 0 -5 6 -7 13 -3 10 6 10 4 0 -7 -7 -7 -13
-28 -13 -47 0 -24 -3 -31 -12 -26 -8 5 -7 0 2 -11 9 -11 10 -16 3 -11 -10 5
-13 -7 -13 -48 0 -31 -4 -56 -10 -56 -5 0 -10 -5 -10 -11 0 -5 6 -7 12 -3 11
6 11 4 1 -7 -8 -8 -13 -41 -13 -82 0 -43 -4 -66 -10 -62 -5 3 -10 2 -10 -4 0
-5 5 -13 10 -16 7 -5 8 -11 1 -18 -5 -7 -10 -48 -10 -91 0 -43 -3 -81 -6 -84
-2 -3 1 -12 8 -20 10 -13 9 -15 -7 -9 -14 6 -17 4 -10 -5 16 -21 17 -68 2 -85
-9 -12 -10 -15 0 -9 8 5 12 -1 12 -19 0 -15 -4 -24 -10 -20 -5 3 -10 1 -10 -4
0 -6 5 -11 11 -11 6 0 7 -5 2 -12 -10 -18 -12 -58 -1 -52 4 3 8 1 8 -5 0 -5
-6 -12 -12 -14 -10 -4 -10 -6 0 -6 6 -1 12 -6 12 -12 0 -5 -3 -8 -8 -5 -4 2
-8 -9 -9 -26 0 -21 2 -26 8 -17 7 11 9 10 9 -3 0 -10 -6 -18 -12 -18 -9 0 -8
-4 2 -10 13 -9 13 -11 0 -20 -10 -6 -11 -10 -2 -10 14 0 16 -36 2 -45 -6 -4
-5 -13 3 -25 9 -16 9 -24 0 -40 -10 -15 -10 -18 0 -15 9 4 11 -9 8 -51 -2 -40
1 -59 10 -65 10 -6 11 -9 2 -9 -7 0 -13 -9 -13 -21 0 -11 4 -18 8 -15 4 2 8
-4 8 -14 0 -10 -3 -17 -6 -15 -3 2 -6 -7 -6 -20 0 -13 4 -21 8 -19 4 3 8 -2 8
-11 0 -10 -5 -14 -12 -9 -10 6 -10 4 -1 -7 8 -8 13 -40 13 -81 0 -44 4 -68 11
-68 8 0 7 -6 -2 -17 -10 -11 -10 -14 -1 -9 9 5 12 -9 12 -58 0 -36 3 -66 8
-66 4 0 8 -24 10 -52 2 -29 9 -56 15 -60 9 -5 8 -8 -3 -8 -12 0 -13 -2 -1 -9
8 -5 13 -25 13 -50 0 -22 3 -43 9 -46 5 -4 9 -22 9 -41 0 -21 4 -33 10 -29 6
3 10 -1 10 -10 0 -10 -5 -14 -12 -9 -10 6 -10 4 -1 -7 7 -7 13 -21 13 -31 0
-10 5 -18 10 -18 6 0 10 -16 10 -36 0 -25 3 -33 12 -28 8 5 7 0 -2 -11 -9 -11
-10 -16 -2 -11 9 5 12 -2 12 -28 0 -19 5 -38 10 -41 6 -3 10 -15 10 -25 0 -10
6 -21 13 -23 9 -4 9 -6 -1 -6 -10 -1 -10 -5 2 -17 9 -8 14 -20 11 -25 -4 -5
-1 -9 4 -9 6 0 11 -13 11 -30 0 -16 5 -30 10 -30 6 0 10 -15 10 -32 0 -25 3
-29 10 -18 7 11 10 7 10 -17 0 -18 5 -33 10 -33 6 0 10 -15 10 -32 0 -25 3
-29 10 -18 7 11 10 7 10 -17 0 -18 5 -33 11 -33 5 0 8 -4 4 -9 -3 -5 2 -16 10
-24 8 -9 15 -23 15 -31 0 -9 5 -16 10 -16 6 0 10 -15 10 -32 0 -25 3 -29 10
-18 7 11 10 6 11 -20 0 -29 2 -31 9 -15 7 17 9 14 9 -13 1 -19 5 -31 11 -27 6
4 10 -7 10 -27 0 -25 3 -29 10 -18 8 12 10 11 10 -7 0 -13 5 -23 11 -23 5 0 8
-4 4 -9 -3 -5 2 -16 10 -24 8 -9 15 -23 15 -31 0 -9 5 -16 10 -16 6 0 10 -7
10 -15 0 -9 7 -18 15 -21 8 -4 12 -10 9 -15 -3 -5 0 -9 5 -9 6 0 11 -10 11
-22 0 -19 2 -20 10 -8 8 12 10 11 10 -7 0 -13 5 -23 10 -23 6 0 10 -9 10 -21
0 -11 5 -17 10 -14 5 3 10 -3 10 -15 0 -12 4 -18 10 -15 5 3 10 -2 10 -12 0
-10 9 -25 20 -33 11 -8 20 -20 20 -28 0 -7 5 -10 10 -7 6 3 10 -4 10 -17 0
-18 2 -20 10 -8 8 12 10 11 10 -5 0 -11 9 -27 20 -35 11 -8 20 -22 20 -32 0
-10 7 -18 15 -18 9 0 19 -8 22 -17 4 -10 19 -30 35 -45 15 -14 28 -34 28 -45
0 -15 2 -16 10 -3 8 12 10 10 10 -10 0 -20 2 -22 10 -10 8 12 10 10 10 -10 0
-20 2 -22 10 -10 8 13 10 12 10 -3 0 -19 122 -147 140 -147 6 0 8 -4 5 -10 -3
-5 1 -10 9 -10 8 0 20 -9 26 -20 6 -11 18 -20 28 -20 15 0 15 -2 2 -10 -12 -8
-11 -10 8 -10 14 0 22 -6 22 -17 0 -9 3 -13 6 -10 4 3 19 -7 34 -23 16 -17 35
-30 43 -30 8 0 17 -9 20 -20 3 -12 14 -20 27 -20 11 0 18 -4 15 -10 -3 -6 4
-10 17 -10 18 0 20 -2 8 -10 -12 -8 -10 -10 8 -10 13 0 20 -4 17 -10 -3 -5 1
-10 9 -10 9 0 16 -4 16 -10 0 -5 9 -10 21 -10 11 0 17 -4 14 -10 -3 -5 1 -10
9 -10 9 0 16 -4 16 -10 0 -5 10 -10 23 -10 18 0 19 -2 7 -10 -12 -8 -11 -10 8
-10 12 0 22 -5 22 -11 0 -5 5 -7 10 -4 5 3 10 -2 10 -12 0 -12 3 -14 8 -6 6 9
12 7 22 -7 8 -11 23 -20 33 -20 10 0 15 -4 12 -10 -4 -6 5 -10 20 -10 15 0 24
-4 20 -10 -3 -5 1 -10 9 -10 9 0 16 -6 16 -12 0 -9 4 -8 10 2 6 10 10 11 10 3
0 -7 10 -13 23 -13 18 0 19 -2 7 -10 -11 -7 -7 -10 18 -10 17 0 32 -4 32 -10
0 -5 9 -10 20 -10 11 0 20 -4 20 -10 0 -5 12 -10 28 -10 21 0 24 -2 12 -10
-13 -8 -12 -10 5 -11 11 -1 23 -1 28 0 4 0 7 -4 7 -9 0 -6 14 -10 30 -10 17 0
30 -4 30 -10 0 -5 9 -10 20 -10 11 0 20 -4 20 -10 0 -5 14 -10 30 -10 17 0 30
-4 30 -10 0 -5 9 -10 20 -10 11 0 20 -6 20 -12 0 -9 4 -8 10 2 6 10 10 11 10
3 0 -8 13 -13 31 -13 17 0 28 -4 24 -10 -4 -6 7 -10 25 -10 22 0 29 -4 24 -12
-5 -8 0 -7 11 2 11 9 16 10 11 3 -5 -9 2 -13 23 -13 17 0 31 -4 31 -10 0 -5
14 -10 30 -10 17 0 30 -4 30 -10 0 -5 14 -10 30 -10 17 0 30 -4 30 -10 0 -5
19 -10 43 -10 27 0 37 -3 28 -9 -9 -6 1 -9 30 -10 65 -3 69 -4 63 -13 -5 -8 9
-12 39 -9 9 1 17 -3 17 -8 0 -6 9 -11 19 -11 11 0 22 -6 24 -12 4 -10 6 -10 6
0 1 6 6 12 12 12 5 0 7 -4 4 -10 -3 -5 3 -10 14 -10 12 0 21 -6 21 -12 0 -9 4
-8 10 2 6 10 10 11 10 3 0 -7 9 -13 20 -13 11 0 20 -5 20 -11 0 -6 9 -9 20 -6
13 3 20 0 20 -9 0 -8 9 -14 20 -14 11 0 20 -4 20 -10 0 -5 9 -10 20 -10 11 0
20 -4 20 -10 0 -5 10 -10 23 -10 18 0 19 -2 7 -10 -12 -8 -11 -10 8 -10 12 0
22 -5 22 -11 0 -5 4 -7 10 -4 5 3 10 -2 10 -12 0 -15 2 -16 10 -3 8 12 10 11
10 -7 0 -14 6 -23 15 -23 8 0 15 -4 15 -10 0 -5 7 -10 15 -10 8 0 15 -9 15
-20 0 -14 7 -20 23 -21 12 0 17 -3 10 -6 -8 -3 -5 -12 10 -27 12 -13 25 -21
30 -19 4 2 7 -2 7 -10 0 -21 26 -68 33 -60 7 7 10 -10 8 -42 -2 -17 0 -17 8
-5 9 12 11 11 11 -7 0 -12 5 -25 10 -28 6 -3 10 -17 10 -31 0 -16 4 -23 11
-18 7 4 7 -1 -1 -16 -8 -15 -8 -20 -1 -16 7 5 11 -6 11 -33 0 -26 5 -41 13
-41 8 0 7 -4 -3 -10 -10 -6 -11 -10 -2 -10 7 0 12 -13 12 -30 0 -17 -5 -30
-12 -30 -9 0 -9 -3 1 -9 18 -12 16 -112 -2 -123 -8 -5 -7 -8 3 -8 12 0 13 -2
1 -9 -11 -7 -11 -9 0 -14 10 -4 10 -6 2 -6 -8 -1 -13 -15 -13 -36 0 -21 -5
-35 -12 -35 -10 0 -9 -3 1 -9 9 -6 9 -10 2 -12 -6 -2 -12 -16 -13 -31 -1 -16
-6 -28 -10 -28 -4 0 -8 -12 -8 -26 0 -16 -4 -23 -11 -18 -7 4 -7 -1 1 -16 7
-12 8 -20 2 -16 -10 6 -21 -11 -18 -27 0 -5 -7 -13 -16 -18 -10 -6 -18 -17
-18 -24 0 -8 -4 -15 -10 -15 -5 0 -10 -8 -10 -18 0 -10 -9 -24 -20 -32 -11 -8
-20 -22 -20 -32 0 -10 -6 -18 -14 -18 -8 0 -17 -7 -20 -16 -3 -8 -11 -12 -17
-8 -7 4 -9 3 -5 -4 3 -6 -9 -27 -29 -46 -19 -19 -35 -42 -35 -51 0 -9 -4 -13
-10 -10 -5 3 -10 -1 -10 -9 0 -9 -4 -16 -10 -16 -5 0 -10 -12 -10 -27 0 -22
-2 -25 -10 -13 -8 12 -10 9 -10 -13 0 -16 -4 -26 -10 -22 -6 4 -10 -13 -10
-45 0 -28 -4 -49 -8 -46 -5 3 -9 -1 -9 -9 0 -8 3 -12 7 -10 4 2 7 -2 7 -10 0
-8 -4 -12 -9 -9 -4 3 -8 0 -8 -5 0 -6 6 -11 13 -11 8 0 7 -4 -3 -10 -10 -6
-11 -10 -2 -10 6 0 12 -8 12 -18 0 -10 6 -24 13 -31 6 -8 7 -11 1 -8 -6 3 -11
0 -11 -8 0 -8 4 -12 9 -9 7 5 13 -18 9 -39 -1 -5 3 -6 9 -2 6 3 10 -3 10 -16
0 -12 3 -20 6 -16 8 7 28 -12 37 -35 3 -10 13 -18 21 -18 8 0 17 -6 19 -12 4
-10 6 -10 6 0 1 11 4 10 16 -1 8 -9 23 -13 34 -10 10 3 22 0 26 -7 5 -8 11 -7
23 2 12 10 14 10 8 1 -10 -17 16 -17 33 -1 11 10 13 10 7 1 -8 -15 10 -18 19
-3 3 6 12 10 18 10 7 0 6 -4 -3 -10 -12 -8 -11 -10 6 -10 11 0 26 6 33 13 11
10 13 9 7 -1 -4 -6 -3 -12 3 -12 5 0 12 6 14 13 4 9 6 9 6 0 1 -7 6 -13 12
-13 5 0 7 5 4 10 -4 6 12 10 40 10 28 0 44 4 40 10 -5 8 31 15 58 11 4 0 7 4
7 9 0 6 14 10 30 10 17 0 30 5 30 10 0 6 9 10 20 10 11 0 20 5 20 10 0 6 9 10
20 10 11 0 20 5 20 10 0 6 8 10 18 10 10 0 24 9 32 20 8 11 20 20 28 20 7 0
20 7 29 15 8 8 19 12 25 9 7 -4 8 -2 4 4 -4 7 -2 12 4 12 6 0 8 5 4 12 -4 6
-3 8 3 5 6 -4 20 1 31 11 12 9 32 26 45 37 14 11 23 23 21 26 -2 3 3 6 11 7 8
1 21 3 29 4 8 1 15 4 14 7 -2 20 3 31 12 26 6 -3 10 1 10 9 0 10 9 16 23 16
16 0 18 3 9 9 -10 6 -9 10 7 14 12 3 21 13 21 24 0 15 2 16 10 3 8 -12 10 -11
10 8 0 13 6 22 15 22 9 0 18 7 21 15 4 8 11 12 18 8 6 -4 4 2 -4 12 -8 10 -10
16 -4 12 6 -3 17 5 24 18 7 13 17 22 22 19 4 -3 8 5 8 18 0 18 2 20 10 8 8
-12 10 -11 10 5 0 11 9 27 20 35 11 8 20 22 20 32 0 17 12 23 34 19 5 -1 3 6
-5 15 -9 12 -9 15 -1 10 8 -5 12 2 12 26 0 25 3 29 10 18 8 -13 10 -12 10 3 0
10 7 25 15 34 8 8 12 20 8 26 -3 7 -3 9 2 5 9 -8 35 36 35 59 0 8 5 11 10 8 6
-4 10 -3 9 2 -1 4 -1 24 1 43 1 29 3 32 10 15 7 -15 9 -10 9 23 1 26 5 41 11
37 9 -6 14 21 14 77 0 9 4 14 9 11 5 -3 7 12 6 33 -2 29 1 38 11 36 10 -2 11
0 2 11 -9 10 -9 17 1 27 9 10 9 11 0 6 -17 -10 -17 55 0 73 9 11 9 13 0 7 -9
-5 -13 1 -13 18 0 14 6 26 13 26 8 0 8 3 -2 9 -10 7 -14 25 -13 58 2 35 0 44
-8 33 -5 -8 -10 -10 -10 -5 0 6 5 16 12 23 9 9 9 12 -1 12 -7 0 -11 8 -10 17
4 46 -1 74 -13 67 -10 -6 -10 -4 0 7 14 16 16 33 2 24 -6 -4 -10 6 -10 22 0
16 -6 35 -12 42 -10 11 -10 13 0 7 6 -4 12 -3 12 3 0 5 -4 11 -9 13 -6 2 -11
22 -12 45 -2 23 -6 40 -11 37 -7 -5 -12 10 -9 28 0 5 -4 8 -9 8 -6 0 -10 9
-10 20 0 11 -4 20 -10 20 -5 0 -10 8 -10 18 0 14 2 15 10 2 5 -8 10 -10 10 -4
0 5 -9 20 -20 32 -12 12 -16 22 -10 22 7 0 5 6 -3 15 -9 8 -13 25 -10 37 4 19
3 20 -6 8 -9 -12 -11 -11 -11 8 0 12 -4 22 -10 22 -5 0 -10 9 -10 21 0 11 -4
18 -8 15 -4 -2 -9 5 -9 17 -1 12 -7 23 -13 25 -5 2 -10 12 -10 23 0 10 -4 19
-10 19 -5 0 -10 8 -10 17 0 9 -3 14 -6 10 -9 -9 -34 19 -34 38 0 9 -4 13 -10
10 -5 -3 -10 0 -10 8 0 8 -9 17 -20 20 -11 3 -20 12 -20 21 0 9 -4 16 -10 16
-5 0 -10 7 -10 15 0 9 -8 19 -17 22 -24 9 -83 70 -76 77 4 3 -1 6 -10 6 -10 0
-17 5 -17 11 0 5 -5 7 -12 3 -8 -5 -9 -2 -5 10 5 14 3 17 -8 12 -8 -3 -15 -1
-15 5 0 14 -26 39 -40 39 -6 0 -8 4 -5 10 3 6 -4 10 -17 10 -18 0 -20 2 -8 10
12 8 10 10 -8 10 -13 0 -20 4 -17 10 3 6 -4 10 -17 10 -18 0 -20 2 -8 10 13 8
12 10 -2 10 -10 0 -18 5 -18 10 0 6 -6 10 -12 10 -18 0 -69 45 -61 54 3 3 -2
6 -13 6 -23 1 -56 24 -47 33 3 4 -4 7 -16 7 -28 0 -57 26 -38 33 6 3 -4 6 -23
6 -26 1 -31 4 -20 11 12 8 9 10 -12 10 -17 0 -31 8 -38 20 -6 11 -18 20 -26
20 -8 0 -12 5 -9 10 3 6 -3 10 -15 10 -12 0 -18 5 -15 10 4 6 -6 10 -22 10
-22 0 -25 2 -13 10 12 7 8 10 -15 10 -23 0 -27 3 -15 10 12 8 10 10 -8 10 -13
0 -20 4 -17 10 3 6 0 10 -8 10 -8 0 -27 6 -42 14 -23 12 -24 15 -8 19 10 3 2
5 -17 6 -19 1 -30 5 -24 9 9 5 8 11 -2 20 -8 7 -14 8 -14 2 0 -5 -14 3 -31 20
-18 16 -38 30 -45 30 -8 0 -14 6 -14 13 0 8 -4 7 -10 -3 -8 -12 -10 -11 -10 8
0 17 -6 22 -26 22 -14 0 -23 4 -19 10 3 5 -2 10 -12 10 -10 0 -25 9 -33 20 -8
11 -21 20 -28 20 -8 0 -27 14 -42 30 -15 17 -34 30 -42 30 -7 0 -20 9 -28 20
-8 11 -24 20 -35 20 -16 0 -17 2 -5 10 12 8 10 10 -8 10 -13 0 -20 4 -17 10 3
6 -1 10 -10 10 -10 0 -13 5 -9 12 5 8 2 9 -9 5 -10 -3 -17 -2 -17 4 0 6 -6 17
-14 25 -11 11 -16 11 -19 1 -3 -6 -6 2 -6 18 -1 23 -4 27 -11 15 -8 -13 -10
-12 -10 3 0 10 -4 15 -10 12 -6 -3 -10 2 -10 12 0 15 -2 16 -10 3 -8 -13 -10
-12 -10 3 0 21 -23 47 -41 47 -7 0 -9 3 -6 6 3 4 -7 19 -23 34 -17 16 -30 34
-30 41 0 7 -3 10 -6 6 -8 -8 -34 18 -34 33 0 6 -5 8 -10 5 -6 -3 -10 1 -10 10
0 19 -25 47 -34 38 -3 -4 -6 4 -6 16 0 12 -4 19 -10 16 -9 -5 -12 1 -9 21 0 3
-9 14 -21 24 -15 13 -17 19 -8 23 7 3 3 6 -9 6 -16 1 -23 7 -23 21 0 11 -4 20
-10 20 -5 0 -10 9 -10 20 0 11 -4 20 -10 20 -5 0 -10 10 -10 23 0 18 -2 19
-10 7 -8 -12 -10 -10 -10 8 0 13 -4 20 -10 17 -6 -4 -10 5 -10 19 0 14 -4 26
-10 26 -5 0 -10 8 -10 18 0 10 -9 24 -20 32 -11 8 -20 22 -20 31 0 10 -5 19
-11 21 -6 2 -13 13 -14 23 -4 36 -17 65 -26 59 -5 -3 -9 10 -9 28 0 25 -3 29
-10 18 -7 -11 -10 -7 -10 18 0 17 -4 32 -10 32 -5 0 -10 15 -10 33 0 22 -3 28
-9 18 -6 -10 -9 -2 -9 24 0 21 -5 41 -11 44 -5 4 -11 23 -13 43 -1 20 -6 34
-10 32 -4 -3 -8 7 -8 21 0 18 -4 24 -12 19 -9 -5 -9 -2 1 9 9 11 10 17 2 17
-6 0 -11 18 -11 45 0 25 -4 45 -10 45 -5 0 -10 5 -10 11 0 5 6 7 13 3 9 -6 9
-4 -1 7 -6 7 -12 28 -12 47 0 19 -4 31 -10 27 -6 -4 -10 13 -10 43 0 27 -3 52
-7 56 -11 10 -12 37 -2 30 5 -3 9 2 9 11 0 10 -5 13 -12 9 -9 -5 -9 -2 1 9 10
13 10 17 1 17 -10 0 -10 3 0 15 10 12 10 19 2 27 -7 7 -12 19 -12 28 0 13 2
13 10 0 6 -10 8 -5 6 18 -1 17 -5 35 -9 38 -10 10 -9 26 1 20 11 -6 9 95 -2
112 -4 7 -2 19 4 27 9 11 9 15 1 15 -6 0 -11 5 -11 11 0 5 5 7 10 4 6 -3 10 1
10 10 0 9 -5 13 -11 9 -8 -5 -8 -1 0 14 13 25 14 35 3 28 -5 -3 -9 1 -9 9 0 8
4 12 9 9 4 -3 8 13 8 36 0 30 3 39 13 34 9 -6 9 -4 0 7 -16 16 -17 33 -1 23 7
-5 8 -3 2 7 -12 20 -14 40 -3 33 9 -5 13 42 9 100 -1 15 2 26 7 23 6 -4 10 0
10 8 0 8 -4 15 -9 15 -4 0 -8 5 -8 11 0 5 5 7 10 4 6 -4 10 8 10 29 0 20 5 36
10 36 6 0 10 10 10 23 0 13 6 29 13 36 10 11 9 12 -3 6 -12 -6 -13 -5 -2 6 6
7 12 26 12 41 0 15 5 28 10 28 6 0 10 12 10 26 0 17 4 23 13 18 7 -5 6 0 -3
11 -12 15 -12 17 -1 10 11 -6 13 -4 8 9 -4 10 -1 19 9 23 13 5 13 7 2 14 -10
7 -10 9 0 9 6 0 12 9 12 19 0 11 6 22 13 24 9 4 9 6 -1 6 -8 1 -6 8 8 23 11
12 20 35 20 50 0 16 3 27 8 25 4 -3 12 1 19 8 10 11 10 15 0 18 -7 3 -5 6 5 6
11 1 16 8 13 21 -2 11 0 18 6 15 5 -4 9 1 9 9 0 9 5 16 10 16 6 0 10 10 10 23
0 18 2 19 10 7 8 -12 10 -11 10 8 0 12 6 22 13 22 8 0 7 4 -3 10 -12 8 -10 10
10 10 20 0 22 2 10 10 -12 8 -10 10 10 10 16 0 21 3 13 8 -9 6 -7 12 7 22 11
8 20 24 20 35 0 16 2 17 10 5 8 -12 10 -11 10 8 0 12 6 22 14 22 8 0 18 9 21
20 4 12 16 20 28 21 21 0 21 1 2 9 -17 7 -17 9 -2 9 9 1 17 6 17 12 0 5 5 7
10 4 6 -3 10 1 10 9 0 9 7 16 15 16 7 0 19 8 24 17 6 10 11 14 11 9 0 -5 8 1
19 12 10 12 22 18 27 14 4 -4 2 1 -6 11 -7 10 -9 17 -4 16 19 -6 54 13 54 29
0 15 2 15 10 2 8 -13 10 -12 10 4 0 11 3 16 6 13 4 -3 19 7 34 23 19 20 30 26
33 18 3 -8 6 -6 6 5 1 10 6 15 11 12 6 -3 10 0 10 8 0 10 7 14 23 10 18 -4 19
-3 7 6 -13 9 -12 11 3 11 10 0 15 5 12 10 -4 6 -3 10 2 9 16 -4 84 32 90 47 5
13 7 13 14 2 7 -10 9 -10 9 0 0 6 7 12 15 12 8 0 15 5 15 10 0 6 12 10 28 10
22 0 24 2 12 11 -12 8 -7 9 18 6 24 -3 32 0 32 12 0 14 1 14 10 1 6 -10 10
-11 10 -2 0 6 8 12 18 12 10 0 24 6 31 13 11 10 12 9 6 -3 -6 -12 -5 -13 6 -2
7 6 23 12 36 12 13 0 23 5 23 10 0 6 9 10 20 10 11 0 20 6 20 13 0 9 3 8 9 -2
7 -10 9 -11 13 0 3 8 20 12 47 11 23 -1 40 1 38 6 -3 4 16 8 41 10 26 2 49 8
53 14 4 7 9 7 13 -1 4 -6 13 -11 19 -11 7 0 6 4 -3 10 -10 7 5 10 53 10 52 0
66 3 61 13 -5 8 -2 7 10 -2 13 -11 20 -11 28 -3 14 14 32 16 24 4 -3 -5 1 -9
9 -9 8 0 12 4 9 9 -8 13 41 9 55 -4 9 -9 12 -9 7 -1 -9 16 11 18 130 15 77 -2
103 -6 97 -15 -3 -7 3 -3 15 7 21 18 27 15 22 -9 -1 -5 4 -4 11 3 15 13 33 17
25 4 -3 -5 1 -9 9 -9 8 0 12 4 9 9 -3 4 0 8 5 8 6 0 11 -6 11 -12 0 -9 4 -8
10 2 6 10 10 11 10 3 0 -7 5 -13 11 -13 5 0 8 4 5 8 -3 5 1 9 9 9 8 0 12 -4 9
-9 -3 -4 14 -8 38 -8 24 0 50 -6 57 -12 11 -10 13 -10 7 0 -4 6 -2 12 3 12 6
0 11 -4 11 -10 0 -5 14 -10 30 -10 17 0 30 -5 30 -12 0 -9 4 -8 11 2 8 11 12
12 16 3 3 -8 26 -13 61 -14 41 0 51 -3 37 -9 -17 -7 -15 -9 12 -9 17 -1 34 -7
36 -13 4 -10 6 -10 6 0 1 6 6 12 12 12 5 0 7 -4 4 -10 -3 -5 1 -10 10 -10 10
0 13 5 9 13 -5 8 -3 8 9 -2 9 -7 14 -18 10 -25 -3 -6 0 -6 8 2 7 6 22 12 34
11 20 0 20 0 0 -9 -17 -7 -15 -9 13 -9 17 -1 32 -5 32 -11 0 -5 5 -10 11 -10
5 0 7 5 4 10 -3 6 -1 10 4 10 6 0 11 -4 11 -10 0 -5 13 -10 29 -10 16 0 37 -7
45 -16 9 -9 16 -11 16 -4 0 6 5 8 10 5 6 -4 7 -12 3 -18 -4 -7 2 -5 12 3 11 9
16 10 11 3 -5 -9 0 -13 13 -13 12 0 21 -5 21 -11 0 -8 6 -7 17 2 11 10 14 10
9 2 -5 -9 -1 -13 13 -13 10 0 22 -6 24 -12 4 -10 6 -10 6 0 1 6 6 12 12 12 5
0 7 -4 4 -10 -3 -5 3 -10 15 -10 14 0 19 -4 14 -12 -5 -8 0 -7 11 2 11 9 16
10 11 3 -4 -8 -1 -13 9 -13 10 0 13 -5 9 -12 -5 -9 -2 -9 9 1 11 9 17 10 17 2
0 -6 9 -11 20 -11 11 0 20 -4 20 -10 0 -5 9 -10 21 -10 11 0 17 -4 14 -10 -4
-6 7 -10 25 -10 18 0 29 -4 25 -10 -4 -6 7 -10 24 -10 17 0 31 -4 31 -10 0 -5
9 -10 21 -10 11 0 17 -4 14 -10 -4 -6 6 -10 22 -10 22 0 25 -2 13 -10 -11 -7
-7 -10 19 -10 19 0 31 -3 28 -7 -9 -8 40 -33 65 -33 10 0 16 -4 13 -10 -3 -5
1 -10 9 -10 9 0 16 -6 16 -12 0 -10 3 -9 9 1 5 8 10 9 12 3 2 -6 11 -12 19
-14 8 -2 23 -11 34 -21 11 -9 30 -17 43 -17 13 0 23 -4 23 -10 0 -5 9 -10 20
-10 11 0 20 -4 20 -10 0 -5 10 -10 23 -10 13 0 33 -9 45 -20 12 -11 28 -20 37
-20 8 0 15 -4 15 -10 0 -5 9 -10 20 -10 11 0 20 -5 20 -11 0 -5 4 -8 9 -4 5 3
16 -2 24 -10 9 -8 23 -15 31 -15 9 0 16 -4 16 -10 0 -5 9 -10 20 -10 11 0 20
-4 20 -10 0 -5 15 -10 33 -11 27 0 29 -2 12 -9 -16 -7 -12 -9 20 -9 30 -1 36
-4 25 -11 -11 -7 -6 -10 20 -10 26 0 31 -3 20 -10 -11 -7 -6 -10 20 -10 26 0
31 -3 20 -10 -12 -7 -8 -10 15 -10 19 0 36 -8 45 -20 10 -14 16 -16 22 -7 6 9
8 9 8 0 0 -7 12 -13 26 -13 14 0 23 -4 19 -10 -3 -5 3 -10 14 -10 12 0 21 -4
21 -10 0 -5 15 -10 33 -10 24 0 28 -3 17 -10 -11 -7 -7 -10 18 -10 17 0 32 -4
32 -10 0 -5 6 -10 13 -10 18 0 67 -24 67 -32 0 -5 9 -8 20 -8 11 0 20 -4 20
-10 0 -5 9 -10 20 -10 11 0 20 -4 20 -10 0 -5 13 -10 29 -10 16 0 31 -4 33 -9
2 -5 10 -11 18 -13 8 -2 21 -9 28 -16 8 -7 18 -10 23 -7 5 4 9 1 9 -4 0 -6 12
-11 26 -11 14 0 23 -4 19 -10 -4 -6 7 -10 25 -10 18 0 29 -4 25 -10 -3 -6 -1
-10 4 -10 6 0 11 5 11 12 0 6 9 1 19 -11 14 -16 21 -18 24 -9 4 10 6 10 6 1 1
-7 12 -13 25 -13 14 0 28 -4 31 -10 3 -5 15 -10 26 -10 10 0 19 -4 19 -10 0
-5 12 -10 26 -10 14 0 32 -7 41 -15 8 -8 19 -13 24 -10 5 4 9 1 9 -4 0 -6 14
-11 31 -11 17 0 28 -4 24 -10 -4 -6 12 -10 42 -10 35 0 44 -3 33 -10 -12 -8
-11 -10 8 -10 12 0 22 -6 22 -12 0 -9 4 -8 10 2 6 10 10 11 10 3 0 -8 13 -13
30 -13 17 0 30 -4 30 -10 0 -5 14 -10 31 -10 17 0 28 -4 24 -10 -4 -6 6 -10
24 -10 16 0 33 -5 36 -10 4 -6 14 -10 23 -9 34 3 53 -1 47 -11 -4 -6 10 -10
34 -10 23 0 41 -4 41 -10 0 -5 16 -10 36 -10 21 0 33 -4 29 -10 -4 -6 11 -10
39 -10 25 0 48 -5 51 -10 3 -6 21 -10 38 -10 24 0 28 -3 17 -10 -10 -6 -6 -9
18 -8 17 1 39 -5 49 -13 11 -9 14 -10 9 -1 -4 6 -3 12 3 12 5 0 11 -5 13 -12
3 -7 19 -11 41 -10 20 2 37 -2 37 -8 0 -5 13 -10 28 -10 15 0 34 -6 41 -13 11
-9 13 -9 7 1 -5 7 -1 12 9 12 9 0 13 -4 10 -10 -3 -6 5 -10 19 -10 13 0 27 -6
29 -12 4 -10 6 -10 6 0 1 14 28 17 33 2 2 -5 20 -10 41 -12 20 -1 37 -6 37
-11 0 -5 8 -3 17 4 11 10 14 10 9 2 -5 -10 3 -13 29 -13 20 0 34 -4 31 -8 -3
-5 1 -9 9 -9 8 0 12 4 9 9 -3 4 0 8 5 8 6 0 11 -4 11 -10 0 -5 18 -10 41 -10
29 0 38 -3 33 -13 -5 -8 -2 -8 9 2 11 9 17 10 17 2 0 -6 17 -11 39 -11 22 0
42 -5 44 -12 4 -10 6 -10 6 0 1 6 6 12 12 12 5 0 7 -6 3 -12 -5 -8 0 -7 11 2
11 9 16 10 11 3 -5 -10 6 -13 44 -13 30 0 49 -4 45 -9 -6 -10 17 -8 46 4 10 3
20 2 24 -4 3 -6 26 -11 51 -11 34 0 43 -3 38 -12 -5 -9 -2 -9 9 1 11 9 17 10
17 2 0 -6 5 -11 11 -11 5 0 7 5 4 10 -3 6 1 10 10 10 9 0 13 -4 10 -10 -3 -5
-2 -10 4 -10 5 0 12 6 14 13 4 10 6 10 6 0 1 -9 19 -13 55 -13 30 0 58 -4 61
-10 3 -5 12 -10 18 -10 7 0 6 4 -3 10 -12 8 -10 10 8 10 16 0 21 -4 16 -12 -5
-8 0 -7 11 2 11 9 16 10 11 3 -4 -7 -3 -13 3 -13 5 0 13 5 16 10 3 6 12 10 18
10 7 0 6 -4 -3 -11 -12 -8 -12 -10 5 -8 48 4 106 -2 101 -9 -3 -5 1 -9 9 -9 8
0 12 4 9 9 -3 4 0 8 5 8 6 0 11 -4 11 -10 0 -5 8 -10 18 -10 14 0 15 2 2 10
-12 7 -10 9 7 7 12 0 19 -5 17 -9 -3 -4 -1 -8 5 -8 5 0 12 6 14 13 4 9 6 9 6
0 1 -8 14 -13 32 -13 21 0 28 4 23 13 -6 9 -5 9 7 0 10 -8 65 -13 164 -14 93
-1 155 -6 164 -13 11 -8 13 -8 8 1 -6 9 23 12 123 12 96 -1 128 -4 124 -12 -5
-8 -2 -7 7 0 8 9 47 13 115 13 73 0 104 4 107 13 4 9 6 9 6 0 1 -7 12 -13 26
-13 14 0 25 6 25 13 0 8 4 7 10 -3 9 -13 10 -13 10 0 0 13 1 13 10 0 6 -10 10
-11 10 -2 0 6 5 12 11 12 5 0 7 -6 3 -12 -6 -10 -4 -10 8 0 10 8 43 13 84 13
46 0 63 3 54 9 -8 6 -10 10 -4 10 5 0 15 -5 22 -12 9 -9 12 -9 12 0 0 7 5 12
11 12 5 0 7 -6 3 -12 -5 -9 -2 -9 9 1 11 9 17 10 17 2 0 -6 5 -11 11 -11 5 0
7 5 4 10 -4 6 15 10 50 10 42 0 54 3 49 13 -6 9 -4 9 7 -1 16 -14 33 -16 24
-2 -9 14 8 12 24 -3 11 -9 13 -9 7 1 -7 12 9 16 47 13 9 -1 17 4 17 11 0 8 3
9 8 3 10 -14 35 -18 27 -4 -5 7 8 10 41 8 37 -2 48 1 46 11 -2 11 0 11 11 1
12 -9 16 -9 20 1 4 10 8 10 16 -2 7 -10 11 -11 11 -2 0 7 13 12 30 12 17 0 30
5 30 10 0 6 5 10 11 10 5 0 8 -4 5 -8 -3 -5 1 -9 9 -9 8 0 12 4 9 9 -3 4 11 8
30 8 22 0 36 5 36 13 0 8 4 7 10 -3 8 -11 12 -12 18 -3 4 7 24 13 45 15 20 1
37 6 37 10 0 4 21 8 46 8 33 0 43 3 38 13 -5 7 0 6 11 -3 11 -9 16 -10 11 -2
-5 8 1 12 18 12 14 0 26 5 26 10 0 6 5 10 11 10 5 0 8 -4 5 -8 -3 -5 1 -9 9
-9 8 0 11 5 8 10 -4 6 0 8 10 4 9 -3 23 1 32 9 11 12 15 12 15 2 0 -10 2 -10
9 1 7 11 9 11 14 0 4 -10 6 -10 6 -1 1 6 10 12 21 12 11 0 20 6 20 13 0 8 4 7
10 -3 6 -10 10 -11 10 -2 0 7 13 12 30 12 22 0 30 5 30 18 0 12 3 13 8 5 6
-10 14 -9 36 2 23 12 32 13 44 3 13 -10 14 -10 8 0 -4 7 -1 12 9 12 10 0 13 5
9 13 -5 7 0 6 11 -3 11 -9 16 -10 11 -2 -5 8 1 12 18 12 14 0 26 5 26 12 0 9
3 9 12 0 7 -7 17 -12 22 -12 6 0 4 5 -4 10 -12 8 -9 10 12 10 15 0 30 5 33 10
3 6 19 10 36 10 16 0 29 5 29 10 0 6 14 10 31 10 21 0 28 4 23 13 -5 7 0 6 11
-3 11 -9 16 -10 11 -2 -5 8 2 12 24 12 18 0 29 4 25 10 -4 6 5 10 20 10 15 0
24 4 20 10 -4 6 -3 10 2 9 24 -4 53 2 48 11 -6 10 15 15 44 10 8 -1 17 2 20 7
10 14 54 36 46 23 -4 -7 4 -5 17 4 14 9 28 13 31 9 4 -3 7 -1 7 5 0 7 9 12 20
12 11 0 20 5 20 10 0 6 6 10 14 10 7 0 26 7 42 14 15 8 32 12 37 9 6 -3 7 -1
3 5 -5 8 2 12 18 12 14 0 26 5 26 10 0 6 7 10 15 10 19 0 57 21 68 37 4 7 14
10 21 7 8 -3 17 -1 21 5 3 6 15 11 26 11 11 0 17 5 14 10 -3 6 3 10 14 10 12
0 21 5 21 10 0 6 8 10 19 10 10 0 24 6 30 14 7 8 21 13 32 11 11 -2 17 0 14 6
-4 5 1 9 9 9 9 0 16 5 16 10 0 6 12 10 28 11 24 0 25 1 7 9 -19 8 -19 9 3 9
12 1 22 7 22 14 0 9 2 9 8 0 6 -9 12 -7 22 7 8 11 22 20 32 20 10 0 18 5 18
10 0 6 9 10 21 10 11 0 17 5 14 10 -3 6 1 10 9 10 9 0 16 5 16 10 0 6 7 10 16
10 9 0 12 5 8 12 -4 6 -3 8 4 4 6 -3 17 1 25 9 9 8 22 15 29 15 8 0 20 9 28
20 8 11 22 20 32 20 9 0 24 10 32 22 9 12 16 17 16 10 0 -10 3 -10 14 0 8 7
12 16 9 20 -2 5 7 8 21 8 23 0 30 8 28 30 0 3 9 7 21 7 12 1 27 10 34 19 7 10
13 14 13 9 0 -4 8 2 19 13 10 12 26 22 35 22 9 0 16 5 16 10 0 6 10 10 23 10
18 0 19 2 7 10 -12 8 -11 10 5 10 11 0 27 9 35 20 8 11 20 20 28 20 7 0 10 5
7 10 -6 9 8 14 28 11 5 -1 6 3 2 9 -3 5 -1 10 6 10 6 0 19 8 28 18 9 10 24 21
34 25 9 3 17 14 17 24 0 15 2 16 10 3 8 -13 10 -12 10 4 0 11 3 17 6 13 3 -3
17 5 31 19 13 13 29 22 34 18 5 -3 9 -2 8 3 -4 21 2 33 16 33 7 0 19 8 24 18
6 9 11 13 11 9 0 -4 12 3 27 17 15 14 31 22 36 19 6 -3 8 -2 5 3 -6 11 28 45
36 36 3 -3 6 2 6 12 0 9 7 19 15 22 8 4 12 10 9 15 -3 5 0 8 8 7 7 -2 12 3 10
10 -1 6 1 11 5 11 22 -4 33 3 33 18 0 9 3 14 6 10 8 -7 114 99 114 114 0 7 3
10 6 6 8 -7 54 38 54 53 0 6 5 8 10 5 9 -6 14 8 11 28 0 4 2 6 6 6 21 -3 33 2
33 16 0 8 9 19 20 25 11 6 20 15 20 21 0 6 13 23 30 39 16 15 26 30 23 34 -3
3 2 6 13 7 10 0 14 3 7 5 -6 3 10 26 38 54 27 27 49 57 49 67 0 15 2 16 10 3
8 -12 10 -11 10 8 0 12 5 22 10 22 6 0 10 7 10 15 0 9 10 20 23 25 12 5 16 9
8 9 -10 1 -7 7 7 20 12 10 19 21 15 25 -3 3 2 6 13 6 16 0 17 2 4 10 -13 8
-12 10 3 10 10 0 15 4 12 10 -3 6 -1 10 4 10 6 0 11 7 11 16 0 8 5 12 10 9 6
-3 10 3 10 15 0 14 4 19 12 14 8 -5 9 -2 5 9 -4 11 -1 17 8 17 8 0 15 7 15 16
0 9 5 12 12 8 6 -4 8 -3 4 4 -3 6 1 17 9 25 8 9 15 23 15 31 0 9 7 16 15 16 8
0 12 6 9 13 -2 7 5 22 16 34 11 12 20 29 20 38 0 8 5 15 10 15 6 0 10 10 10
23 0 18 2 19 10 7 8 -12 10 -11 10 8 0 12 5 22 10 22 6 0 10 12 10 26 0 14 3
23 8 21 4 -3 13 1 20 9 9 10 10 14 1 14 -7 0 -3 8 7 18 10 9 20 24 22 32 2 8
8 16 13 18 5 2 9 10 9 18 0 9 4 13 8 10 4 -2 9 5 9 17 1 12 7 23 13 25 5 2 10
16 10 30 0 21 2 24 10 12 8 -12 10 -11 10 8 0 12 5 22 10 22 6 0 10 9 10 20 0
11 5 20 10 20 6 0 10 9 10 20 0 11 6 20 13 20 9 0 9 2 0 8 -9 6 -7 12 7 22 11
8 20 24 20 35 0 12 9 31 20 42 14 15 16 23 7 26 -9 4 -9 6 1 6 6 1 12 10 12
20 0 11 4 21 10 23 5 2 11 15 12 30 1 15 6 24 10 22 7 -4 10 10 7 32 0 4 3 10
8 13 4 3 13 16 20 28 10 17 10 23 0 26 -9 4 -9 6 1 6 6 1 12 8 12 16 0 8 4 15
9 15 8 0 25 53 24 78 0 6 7 12 16 12 14 0 14 2 1 10 -8 5 -10 10 -5 10 12 0
35 47 35 72 0 10 5 18 11 18 5 0 8 4 4 9 -3 5 -1 12 4 16 6 3 7 13 4 22 -4 11
-3 14 5 9 8 -5 12 4 12 29 0 25 4 34 12 29 6 -4 8 -3 5 3 -3 5 1 22 9 38 8 16
14 36 13 44 -3 32 1 42 14 35 9 -6 9 -4 -1 8 -8 10 -9 17 -3 20 6 1 12 12 14
23 2 11 7 27 11 35 3 8 7 29 9 45 2 17 6 37 9 45 19 55 28 90 28 113 0 15 6
27 13 27 8 0 7 4 -3 10 -10 6 -11 10 -2 10 7 0 12 13 12 30 0 17 5 30 10 30 6
0 10 5 10 11 0 5 -6 7 -12 3 -10 -6 -10 -4 0 7 6 7 12 30 12 52 0 28 3 36 13
31 7 -5 6 0 -3 11 -9 11 -10 16 -2 11 9 -5 12 3 13 31 1 21 1 44 0 52 -2 8 2
10 11 5 9 -5 8 -2 -2 11 -9 12 -10 16 -2 11 10 -6 12 1 9 28 -2 20 2 48 9 62
16 30 19 47 4 24 -7 -12 -9 -10 -7 7 0 12 5 19 9 17 4 -3 8 21 8 53 0 33 5 65
13 72 10 11 10 13 0 7 -7 -4 -13 -2 -13 3 0 6 5 11 11 11 6 0 7 5 2 13 -4 6
-9 21 -10 32 -3 16 -1 17 7 5 7 -11 10 9 10 66 0 50 5 85 13 93 10 11 10 13 0
7 -7 -4 -13 -2 -13 3 0 6 6 11 13 11 9 0 8 3 -2 9 -11 7 -11 9 0 14 10 4 10 6
2 6 -7 1 -13 6 -13 12 0 5 6 7 13 3 7 -5 6 0 -3 11 -9 11 -10 16 -2 11 6 -4
12 -3 12 1 0 5 -6 15 -12 22 -7 8 -8 11 -2 8 7 -4 12 12 13 48 1 39 -2 55 -11
55 -10 0 -10 2 0 9 10 6 13 31 12 87 -1 43 -1 88 0 99 1 11 1 27 1 35 0 8 -1
39 -1 69 0 30 -6 61 -13 69 -9 13 -9 14 1 8 6 -4 12 -3 12 1 0 5 -6 15 -12 22
-10 11 -10 13 0 7 7 -5 12 -1 12 9 0 9 -4 14 -9 11 -5 -4 -8 2 -6 11 2 10 4
18 5 18 1 0 3 8 5 18 2 9 -1 14 -6 11 -6 -3 -10 17 -9 48 0 131 -2 158 -11
158 -5 0 -9 5 -9 11 0 5 4 8 8 5 5 -3 9 1 9 9 0 8 -4 15 -9 15 -4 0 -8 29 -8
65 0 37 -4 65 -10 65 -6 0 -10 28 -10 65 0 45 -4 65 -12 65 -9 0 -8 4 2 10 10
6 11 10 3 10 -8 0 -13 13 -13 31 0 16 -4 28 -8 25 -5 -3 -9 1 -9 9 0 8 4 12 9
9 4 -3 8 0 8 5 0 6 -4 11 -10 11 -5 0 -10 5 -10 11 0 5 5 7 10 4 6 -3 10 -2
10 4 0 5 -5 11 -12 13 -8 3 -11 20 -10 44 2 30 0 35 -8 24 -9 -13 -11 -12 -9
5 3 46 -1 66 -13 59 -10 -6 -10 -4 0 8 8 10 9 17 3 20 -5 1 -11 24 -12 50 -2
26 -6 45 -11 42 -4 -3 -8 12 -8 33 0 26 -3 34 -9 24 -6 -9 -9 -2 -9 25 0 21
-5 40 -11 42 -6 2 -11 16 -11 32 0 16 -6 31 -12 33 -10 4 -10 6 0 6 6 1 12 6
12 12 0 5 -4 7 -10 4 -6 -4 -10 8 -10 30 0 22 -4 34 -10 30 -6 -4 -10 11 -10
37 0 29 -3 38 -9 29 -6 -9 -9 -2 -9 25 0 21 -5 40 -11 42 -6 2 -11 15 -11 28
0 18 -4 23 -12 18 -8 -5 -7 0 2 11 9 11 10 16 3 11 -9 -5 -13 2 -13 23 0 17
-4 31 -8 31 -5 0 -9 6 -9 13 -1 22 -8 41 -21 55 -7 8 -10 17 -7 22 3 5 -1 11
-7 13 -10 4 -9 6 1 6 9 1 6 8 -9 21 -13 11 -18 20 -11 20 8 0 7 5 -3 16 -9 8
-14 20 -11 25 4 5 1 9 -4 9 -6 0 -11 14 -11 30 0 17 -4 30 -10 30 -5 0 -10 9
-10 20 0 11 -4 20 -10 20 -5 0 -10 14 -10 31 0 17 -4 28 -10 24 -9 -5 -15 15
-11 38 0 4 -3 7 -9 7 -5 0 -10 9 -10 21 0 11 -4 17 -10 14 -6 -4 -10 5 -10 19
0 14 -4 26 -10 26 -5 0 -10 9 -10 21 0 11 -4 17 -10 14 -6 -4 -10 9 -10 32 0
28 -3 34 -10 23 -8 -12 -10 -11 -10 8 0 12 -4 22 -10 22 -5 0 -10 14 -10 31 0
17 -4 28 -10 24 -5 -3 -10 1 -10 9 0 9 -4 16 -10 16 -5 0 -10 9 -10 20 0 11
-4 20 -10 20 -5 0 -10 9 -10 20 0 11 -4 20 -10 20 -5 0 -10 9 -10 20 0 11 -4
20 -10 20 -5 0 -10 10 -10 23 0 18 -2 19 -10 7 -7 -11 -10 -6 -10 20 0 26 -3
31 -10 20 -8 -12 -10 -10 -10 8 0 13 -4 20 -10 17 -5 -3 -10 -1 -10 4 0 6 6
11 13 12 6 0 2 4 -10 9 -13 5 -23 16 -23 25 0 8 -6 15 -12 15 -9 0 -8 4 2 10
10 6 11 10 3 10 -7 0 -13 8 -13 18 0 14 -2 15 -10 2 -7 -11 -10 -7 -10 18 0
25 -5 35 -20 39 -11 3 -18 9 -15 13 2 4 -4 18 -15 30 -11 12 -17 27 -14 31 3
5 0 9 -5 9 -6 0 -11 10 -11 22 0 12 -3 18 -7 15 -11 -12 -33 15 -33 42 0 20
-2 23 -10 11 -9 -13 -10 -13 -11 0 -1 8 -1 18 0 23 0 4 -3 7 -9 7 -5 0 -10 9
-10 21 0 11 -4 17 -10 14 -5 -3 -10 1 -10 9 0 9 -7 16 -17 16 -9 0 -14 3 -10
6 3 4 -1 13 -9 21 -8 8 -12 19 -9 24 4 5 1 9 -4 9 -6 0 -11 7 -11 16 0 8 -4
12 -10 9 -5 -3 -10 1 -10 10 0 19 -25 47 -34 38 -3 -4 -6 1 -6 10 0 10 -5 17
-11 17 -5 0 -8 4 -5 9 3 5 -1 11 -9 15 -8 3 -15 12 -15 21 0 8 -4 15 -10 15
-5 0 -10 7 -10 16 0 8 -4 12 -10 9 -9 -6 -14 8 -11 28 1 5 -3 6 -9 2 -5 -3
-10 0 -10 7 0 8 -9 20 -19 28 -11 7 -18 17 -15 22 3 4 -2 8 -10 8 -10 0 -16 9
-16 23 0 18 -2 19 -10 7 -8 -13 -10 -12 -10 3 0 11 -13 32 -30 47 -16 15 -30
33 -30 40 0 6 -4 8 -10 5 -6 -3 -10 4 -10 17 0 18 -2 20 -10 8 -8 -12 -10 -10
-10 8 0 13 -4 20 -10 17 -5 -3 -10 1 -10 10 0 9 -4 13 -10 10 -5 -3 -10 -1
-10 6 0 6 -8 19 -18 28 -10 9 -21 24 -25 34 -3 9 -13 17 -22 17 -8 0 -15 7
-15 15 0 22 -47 68 -53 52 -3 -7 -6 -4 -6 6 -1 21 -24 47 -41 47 -6 0 -8 5 -5
10 3 6 -1 10 -10 10 -9 0 -14 3 -12 8 2 4 -6 17 -19 29 -15 15 -24 18 -27 10
-3 -7 -6 -2 -6 11 -1 13 -5 20 -11 17 -5 -3 -10 -1 -10 5 0 6 -6 18 -14 26 -8
8 -20 14 -26 14 -6 0 -8 5 -5 10 3 6 -4 10 -17 10 -15 0 -19 3 -10 8 9 6 5 12
-15 23 -36 18 -54 35 -46 43 4 3 1 6 -6 6 -16 0 -42 26 -34 34 4 3 0 6 -8 6
-8 0 -21 9 -29 20 -8 11 -20 20 -28 20 -7 0 -10 5 -7 10 3 6 -4 10 -17 10 -18
0 -20 2 -8 10 12 8 10 10 -8 10 -13 0 -20 4 -17 10 3 6 -1 10 -10 10 -9 0 -13
5 -10 10 3 6 1 10 -5 10 -7 0 -24 13 -40 30 -15 16 -30 26 -34 23 -3 -3 -6 1
-6 10 0 10 -7 17 -15 17 -9 0 -36 20 -61 45 -25 25 -49 43 -55 40 -5 -4 -9 3
-9 14 0 13 -6 21 -18 21 -10 0 -24 9 -32 20 -8 11 -23 20 -33 20 -10 0 -15 5
-12 10 3 6 -1 10 -9 10 -9 0 -16 5 -16 10 0 6 -10 10 -22 11 -13 0 -17 3 -11
6 17 6 -9 33 -32 33 -9 0 -13 5 -10 10 3 6 -1 10 -9 10 -9 0 -16 5 -16 10 0 6
-10 10 -22 10 -19 0 -20 2 -8 10 12 8 10 10 -10 10 -20 0 -22 2 -10 10 12 8 9
10 -13 10 -16 0 -26 4 -22 10 3 6 -3 10 -14 10 -15 0 -21 7 -22 23 0 12 -3 17
-5 10 -4 -8 -16 -1 -36 18 -17 16 -37 29 -45 29 -8 0 -11 5 -7 12 5 8 2 9 -9
5 -11 -4 -17 -1 -17 8 0 8 -9 15 -21 15 -11 0 -17 5 -14 10 4 6 -6 10 -22 11
-15 0 -22 3 -15 6 17 7 -15 32 -41 33 -10 0 -15 5 -12 10 3 6 -3 10 -15 10
-12 0 -18 5 -15 10 3 6 1 10 -5 10 -6 0 -20 9 -32 20 -12 11 -30 20 -40 20
-11 0 -16 5 -13 10 3 6 -3 10 -15 10 -12 0 -18 5 -15 10 4 6 -6 10 -22 10 -22
0 -25 2 -13 10 12 8 10 10 -8 10 -13 0 -20 4 -17 10 3 6 -3 10 -15 10 -11 0
-23 6 -26 14 -3 9 -13 12 -22 9 -9 -4 -14 -3 -10 2 9 10 -16 35 -36 35 -9 0
-16 5 -16 11 0 5 -4 7 -10 4 -5 -3 -10 1 -10 9 0 9 -9 16 -20 16 -11 0 -20 5
-20 10 0 6 -8 10 -18 10 -10 0 -24 9 -32 20 -8 11 -23 20 -33 20 -10 0 -15 5
-12 10 3 6 -4 10 -17 10 -13 0 -30 9 -38 20 -8 11 -21 20 -30 20 -9 0 -22 9
-30 20 -8 11 -21 20 -30 20 -9 0 -22 9 -30 20 -10 14 -16 16 -22 7 -5 -8 -8
-6 -8 6 0 10 -4 15 -10 12 -5 -3 -10 -1 -10 4 0 6 -9 11 -20 11 -11 0 -20 5
-20 11 0 5 -4 7 -10 4 -5 -3 -10 1 -10 9 0 9 -9 16 -20 16 -11 0 -20 5 -20 10
0 6 -7 10 -16 10 -8 0 -12 5 -9 10 4 6 -5 10 -20 10 -15 0 -24 4 -20 10 3 6
-1 10 -10 10 -10 0 -13 5 -9 13 5 7 1 7 -12 -3 -10 -8 -16 -11 -12 -6 10 12
-17 36 -39 36 -15 0 -16 2 -3 10 12 8 9 10 -13 10 -16 0 -26 4 -22 10 3 6 -3
10 -15 10 -14 0 -19 4 -14 12 5 8 2 9 -10 5 -14 -6 -17 -3 -12 9 4 12 2 15 -9
10 -10 -3 -15 1 -15 12 0 12 -3 13 -8 5 -6 -9 -12 -7 -22 7 -8 11 -24 20 -35
20 -16 0 -17 2 -5 10 12 8 11 10 -7 10 -13 0 -23 5 -23 10 0 6 -10 10 -22 10
-19 0 -20 2 -8 10 12 8 11 10 -7 10 -13 0 -23 5 -23 10 0 6 -7 10 -16 10 -8 0
-12 5 -9 10 3 6 -3 10 -15 10 -12 0 -18 5 -15 10 3 6 -1 10 -9 10 -9 0 -16 5
-16 10 0 6 -10 10 -22 10 -19 0 -20 2 -8 10 12 8 11 10 -5 10 -11 0 -27 9 -35
19 -7 11 -17 18 -22 15 -4 -3 -8 3 -8 13 0 12 -3 14 -8 6 -6 -9 -12 -7 -22 7
-8 11 -20 20 -28 20 -7 0 -10 5 -7 10 3 6 -1 10 -10 10 -10 0 -30 14 -45 30
-19 20 -30 26 -33 18 -3 -7 -6 -3 -6 10 -1 20 -6 24 -28 21 -4 0 -10 9 -15 20
-4 12 -14 21 -23 21 -8 0 -15 5 -15 10 0 6 -8 10 -17 10 -9 0 -14 3 -10 6 7 8
-17 34 -32 34 -6 0 -11 5 -11 10 0 6 -8 10 -17 10 -15 0 -16 2 -3 10 12 8 11
10 -7 10 -14 0 -23 6 -23 16 0 8 -4 12 -10 9 -5 -3 -10 1 -10 10 0 8 -8 19
-17 22 -24 9 -43 29 -36 37 4 3 -1 6 -10 6 -10 0 -17 5 -17 11 0 5 -5 7 -12 3
-6 -4 -8 -3 -5 4 11 17 -4 42 -24 42 -13 0 -19 7 -19 21 0 11 -4 17 -10 14 -5
-3 -10 1 -10 9 0 9 -7 16 -16 16 -8 0 -12 5 -9 10 3 6 1 10 -4 10 -6 0 -11 8
-11 17 0 9 -3 13 -6 10 -8 -8 -45 33 -39 42 2 4 -5 14 -16 21 -10 8 -19 22
-19 32 0 10 -4 18 -10 18 -5 0 -10 7 -10 16 0 20 -25 45 -36 36 -5 -4 -2 2 6
12 10 13 10 17 3 12 -9 -5 -13 1 -13 21 0 22 -2 25 -10 13 -9 -13 -10 -13 -11
0 -1 8 -1 21 0 28 1 8 -7 22 -18 31 -12 10 -21 25 -21 34 0 9 -4 19 -10 22 -5
3 -10 22 -10 41 0 19 -4 34 -10 34 -5 0 -9 6 -7 13 1 6 -4 11 -12 9 -12 -3
-12 -1 0 14 11 13 11 18 2 21 -8 3 -13 21 -13 44 0 21 -4 39 -10 39 -5 0 -10
14 -10 31 0 16 -4 28 -9 25 -10 -7 -9 20 2 30 12 12 8 26 -5 18 -8 -5 -7 0 2
11 9 11 10 16 3 11 -9 -5 -13 0 -13 16 0 13 0 34 -1 48 0 13 -5 31 -12 39 -9
12 -9 13 1 7 7 -4 12 -1 12 9 0 9 -4 13 -10 10 -14 -9 -12 8 3 24 10 11 10 13
0 7 -9 -5 -13 0 -13 16 0 18 2 20 10 8 7 -12 9 -10 7 7 0 12 -5 19 -9 17 -10
-6 -11 10 -1 20 11 10 12 37 2 30 -5 -3 -9 2 -9 11 0 9 4 14 8 11 5 -3 8 8 8
24 0 16 -3 27 -7 24 -9 -5 -6 23 4 32 12 12 8 26 -5 18 -10 -6 -10 -4 0 7 6 7
12 17 12 22 0 4 -6 5 -12 1 -9 -5 -9 -2 1 9 11 14 11 17 0 17 -11 0 -11 2 1
10 13 9 13 11 0 20 -10 6 -11 10 -2 10 9 0 12 26 12 96 0 52 4 93 8 90 4 -2 9
5 9 17 2 17 0 19 -7 7 -7 -11 -10 -8 -10 13 0 16 4 26 10 22 6 -3 10 -1 10 4
0 6 -5 11 -11 11 -8 0 -7 6 2 17 12 14 12 16 0 8 -11 -6 -13 -4 -8 10 4 9 2
25 -5 33 -11 13 -10 15 3 10 9 -4 16 -1 16 8 0 7 -4 11 -9 8 -4 -3 -8 27 -8
66 0 45 -4 69 -10 65 -6 -4 -10 11 -10 37 -1 43 -18 78 -38 78 -6 0 -9 7 -5
16 4 10 -2 17 -17 21 -16 4 -18 8 -8 14 9 6 7 9 -9 9 -14 0 -23 6 -23 15 0 9
-6 12 -17 8 -11 -4 -14 -3 -9 5 5 8 -3 12 -23 12 -17 0 -31 4 -31 10 0 5 -17
9 -38 8 -22 0 -43 1 -48 3 -5 2 -30 3 -57 1z m-1194 -2127 c-7 -21 -12 -19
-10 4 0 11 5 18 9 15 4 -3 5 -11 1 -19z m3744 -1171 c-3 -3 -12 -4 -19 -1 -8
3 -5 6 6 6 11 1 17 -2 13 -5z"/>
<path d="M7348 12413 c7 -3 16 -2 19 1 4 3 -2 6 -13 5 -11 0 -14 -3 -6 -6z"/>
<path d="M10171 10794 c0 -11 3 -14 6 -6 3 7 2 16 -1 19 -3 4 -6 -2 -5 -13z"/>
<path d="M6904 8693 c5 -9 0 -13 -14 -13 -12 0 -18 -4 -15 -10 4 -6 -5 -10
-19 -10 -18 0 -26 -5 -26 -17 0 -15 -2 -16 -10 -3 -6 9 -10 10 -10 3 0 -6 -9
-15 -20 -18 -11 -4 -18 -11 -15 -16 4 -5 0 -9 -7 -9 -8 0 -20 -9 -28 -20 -8
-11 -20 -20 -27 -20 -7 0 -10 -9 -8 -20 2 -11 0 -18 -6 -15 -5 4 -9 1 -9 -5 0
-6 -9 -20 -20 -32 -18 -20 -25 -39 -21 -60 0 -5 -3 -8 -9 -8 -6 0 -10 -5 -10
-11 0 -5 6 -7 13 -3 10 6 10 4 0 -7 -7 -7 -13 -23 -13 -36 0 -13 -4 -23 -10
-23 -5 0 -10 -5 -10 -11 0 -5 6 -7 13 -3 8 5 8 2 -2 -9 -9 -11 -10 -17 -2 -17
6 0 11 -5 11 -11 0 -5 -4 -7 -10 -4 -7 4 -10 -55 -10 -169 0 -130 3 -176 12
-176 9 0 9 -3 0 -12 -7 -7 -12 -17 -12 -22 0 -6 5 -4 10 4 7 10 10 -7 10 -58
0 -56 3 -71 13 -66 7 5 6 0 -3 -11 -9 -11 -10 -16 -2 -11 9 5 12 -6 12 -44 0
-32 4 -49 10 -45 6 3 10 -1 10 -10 0 -10 -5 -14 -12 -9 -10 6 -10 4 0 -7 6 -7
12 -21 12 -31 0 -10 5 -18 10 -18 6 0 10 -5 10 -11 0 -5 -6 -7 -12 -3 -8 5 -7
0 2 -11 8 -10 14 -26 12 -37 -2 -10 2 -18 7 -18 6 0 11 -9 11 -19 0 -11 6 -22
13 -24 10 -4 10 -6 0 -6 -7 -1 -13 -6 -13 -12 0 -5 5 -7 10 -4 10 6 14 -6 11
-37 -1 -10 3 -18 8 -18 6 0 11 -9 11 -20 0 -11 6 -20 13 -20 8 0 7 -4 -3 -10
-10 -6 -11 -10 -2 -10 6 0 12 -9 12 -20 0 -11 5 -20 10 -20 6 0 10 -9 10 -20
0 -11 5 -20 10 -20 6 0 10 -15 10 -32 0 -25 3 -29 10 -18 8 12 10 11 10 -7 0
-13 6 -23 13 -23 8 0 7 -4 -3 -10 -10 -6 -11 -10 -2 -10 6 0 12 -10 13 -22 0
-22 1 -22 9 -3 8 18 9 17 9 -7 1 -16 6 -28 11 -28 6 0 10 -9 10 -20 0 -11 5
-20 11 -20 5 0 8 -4 4 -9 -3 -5 2 -16 10 -24 8 -9 15 -23 15 -32 0 -9 5 -13
10 -10 6 3 10 -3 10 -14 0 -12 5 -21 10 -21 6 0 10 -9 10 -21 0 -11 5 -17 10
-14 6 3 10 -3 10 -14 0 -12 5 -21 10 -21 6 0 10 -8 10 -18 0 -10 9 -24 20 -32
11 -8 20 -21 20 -30 0 -9 9 -22 20 -30 11 -8 20 -22 20 -32 0 -10 5 -18 10
-18 6 0 10 -10 10 -22 0 -19 2 -20 10 -8 8 13 10 12 10 -3 0 -10 7 -25 15 -34
8 -8 12 -19 9 -25 -4 -7 -2 -8 4 -4 7 4 12 1 12 -8 0 -9 5 -16 10 -16 6 0 10
-7 10 -16 0 -8 5 -12 10 -9 6 3 10 -1 10 -10 0 -10 14 -30 30 -45 17 -16 31
-31 30 -34 -1 -21 2 -26 16 -26 8 0 12 -4 9 -10 -3 -5 -1 -10 4 -10 6 0 11 -7
11 -16 0 -8 5 -12 10 -9 6 3 10 -1 10 -10 0 -9 5 -13 10 -10 6 3 10 -1 10 -10
0 -9 5 -13 10 -10 6 3 10 -4 10 -17 0 -18 2 -20 10 -8 8 12 10 11 10 -7 0 -14
6 -23 16 -23 8 0 12 -4 9 -10 -3 -5 1 -10 10 -10 9 0 13 -4 10 -10 -3 -5 1
-10 10 -10 9 0 14 -3 12 -7 -3 -5 1 -13 8 -20 11 -10 15 -10 18 0 3 7 6 2 6
-10 1 -14 7 -23 17 -23 8 0 13 -3 11 -7 -6 -10 39 -53 47 -46 3 4 6 1 6 -6 0
-15 19 -35 43 -44 9 -3 17 -13 17 -22 0 -8 9 -15 20 -15 11 0 20 -7 20 -16 0
-8 5 -12 10 -9 6 3 10 -2 10 -11 0 -10 3 -15 6 -11 8 8 34 -18 34 -33 0 -6 5
-8 10 -5 6 3 10 1 10 -4 0 -6 7 -11 15 -11 9 0 12 -6 8 -17 -4 -11 -3 -14 5
-9 7 4 12 2 12 -4 0 -6 5 -8 10 -5 6 3 10 1 10 -5 0 -14 60 -74 83 -83 9 -3
17 -11 17 -17 0 -17 26 -40 44 -40 9 0 16 -8 16 -20 0 -13 7 -20 19 -20 10 0
21 -9 24 -20 3 -11 13 -20 24 -20 15 0 16 -2 3 -10 -12 -8 -11 -10 8 -10 14 0
22 -6 22 -17 0 -9 3 -14 6 -10 8 8 34 -18 34 -34 0 -7 3 -10 6 -6 9 9 54 -40
55 -60 0 -10 3 -13 6 -6 3 10 8 10 19 -1 8 -8 14 -20 14 -26 0 -15 26 -41 34
-33 3 4 6 -4 6 -17 0 -13 3 -21 6 -17 9 8 34 -18 34 -35 0 -8 9 -20 20 -28 14
-10 16 -16 7 -22 -8 -5 -4 -8 11 -8 15 0 22 -6 22 -20 0 -11 5 -20 10 -20 6 0
10 -6 10 -13 0 -7 9 -23 20 -35 11 -12 20 -26 20 -31 0 -6 9 -15 20 -21 11 -6
20 -17 20 -25 0 -8 5 -15 10 -15 6 0 10 -9 10 -21 0 -11 5 -17 10 -14 6 3 10
0 10 -7 0 -8 9 -20 20 -28 11 -8 20 -22 20 -32 0 -10 5 -18 10 -18 6 0 10 -8
10 -18 0 -10 9 -24 19 -32 11 -7 18 -17 15 -22 -3 -4 3 -8 13 -8 15 0 16 -2 3
-10 -10 -6 -11 -10 -2 -10 6 0 12 -10 12 -22 0 -19 2 -20 10 -8 7 11 10 6 10
-20 0 -26 3 -31 10 -20 7 11 10 7 10 -18 0 -20 4 -31 10 -27 6 3 10 0 10 -9 0
-8 6 -17 13 -19 10 -4 10 -6 0 -6 -7 -1 -13 -9 -13 -18 0 -15 2 -16 10 -3 7
11 10 7 10 -17 0 -18 5 -33 10 -33 6 0 10 -9 10 -19 0 -11 6 -22 13 -24 10 -4
10 -6 0 -6 -7 -1 -13 -6 -13 -12 0 -5 5 -7 10 -4 6 4 10 -8 10 -30 0 -26 4
-34 13 -29 10 6 10 4 0 -7 -7 -7 -13 -18 -13 -24 0 -5 5 -3 11 5 8 12 10 12 8
-5 -4 -50 2 -86 12 -80 6 4 5 -3 -3 -15 -10 -18 -10 -24 0 -27 6 -3 9 -10 5
-16 -11 -17 -13 -38 -3 -32 5 3 9 -33 9 -79 0 -50 -4 -88 -10 -92 -8 -4 -7 -9
2 -15 10 -6 11 -9 2 -9 -7 0 -13 -5 -13 -11 0 -5 4 -8 8 -5 5 3 9 -1 9 -9 0
-8 -4 -12 -9 -9 -4 3 -8 -16 -8 -41 0 -34 -3 -44 -12 -39 -9 5 -9 2 1 -9 8
-10 9 -17 3 -17 -6 0 -10 -18 -10 -41 0 -23 -5 -45 -11 -48 -6 -4 -12 -24 -13
-44 -1 -20 -5 -34 -10 -31 -4 3 -8 -11 -8 -31 0 -20 -4 -34 -8 -31 -7 4 -12
-17 -15 -61 0 -7 -4 -10 -9 -7 -4 3 -8 -4 -8 -16 0 -14 -4 -19 -12 -14 -8 5
-7 0 2 -11 9 -11 10 -16 3 -11 -9 5 -13 0 -13 -18 0 -14 -4 -28 -10 -31 -5 -3
-10 -15 -10 -26 0 -10 -4 -19 -10 -19 -5 0 -10 -7 -10 -16 0 -8 -4 -13 -9 -9
-6 3 -8 -3 -6 -14 2 -11 -3 -25 -11 -32 -8 -6 -14 -20 -14 -31 0 -10 -4 -16
-10 -13 -5 3 -10 -1 -10 -9 0 -9 -4 -16 -10 -16 -5 0 -10 -9 -10 -21 0 -11 -4
-17 -10 -14 -6 4 -10 -7 -10 -24 0 -17 -4 -31 -10 -31 -5 0 -10 -14 -10 -31 0
-18 -4 -28 -10 -24 -6 4 -10 3 -9 -2 5 -26 -2 -63 -11 -58 -5 3 -10 1 -10 -4
0 -6 6 -11 13 -11 8 0 7 -4 -3 -10 -13 -9 -13 -10 0 -10 11 0 12 -3 3 -8 -14
-9 -15 -92 -2 -92 5 0 9 -19 9 -42 0 -32 3 -39 10 -28 8 12 10 9 10 -13 0 -16
3 -26 8 -24 4 3 12 -1 19 -8 10 -11 10 -15 0 -18 -7 -3 -2 -6 11 -6 16 -1 22
-7 23 -23 0 -13 3 -18 6 -11 3 10 7 10 18 0 9 -9 10 -14 1 -19 -6 -5 -1 -8 12
-8 13 0 20 -4 17 -10 -3 -5 1 -10 9 -10 9 0 16 -4 16 -10 0 -5 8 -10 18 -10
10 0 24 -9 32 -20 8 -11 22 -20 32 -20 10 0 18 -4 18 -10 0 -5 9 -10 20 -10
11 0 20 -4 20 -10 0 -5 13 -10 29 -10 16 0 32 -6 34 -12 4 -10 6 -10 6 0 1 6
6 12 12 12 5 0 7 -4 4 -10 -3 -5 3 -10 14 -10 12 0 21 -4 21 -8 0 -5 7 -9 15
-9 8 0 12 4 9 9 -3 4 0 8 5 8 6 0 11 -4 11 -10 0 -5 13 -10 29 -10 16 0 32 -6
34 -12 4 -10 6 -10 6 0 1 6 10 12 22 12 13 0 18 -4 13 -12 -5 -8 0 -7 11 2 11
9 16 10 11 3 -4 -7 -2 -13 3 -13 6 0 11 6 11 13 0 9 2 9 9 -1 7 -12 24 -13
111 -11 8 0 20 0 25 -1 6 -1 27 -2 48 -1 28 1 36 4 31 14 -4 6 2 4 13 -6 19
-17 22 -17 37 -2 9 9 16 12 16 7 0 -5 16 -9 35 -10 26 -1 34 2 28 11 -4 7 2 5
12 -3 11 -9 16 -10 11 -2 -5 9 5 12 41 12 27 0 55 6 62 12 11 10 13 10 7 1 -4
-7 -2 -13 3 -13 6 0 11 6 11 13 0 8 4 7 10 -3 6 -10 10 -11 10 -2 0 7 13 12
31 12 21 0 28 4 23 12 -5 8 0 7 11 -2 11 -9 16 -10 11 -2 -5 8 1 12 21 12 16
0 35 6 42 12 11 10 13 10 7 1 -4 -7 -2 -13 3 -13 6 0 11 5 11 10 0 6 11 10 25
10 14 0 25 5 25 10 0 6 11 10 25 10 14 0 25 5 25 10 0 6 5 10 11 10 5 0 8 -4
4 -10 -3 -5 7 -3 21 5 15 8 32 11 37 8 6 -3 7 -1 3 5 -5 8 0 12 13 12 12 0 30
9 41 20 11 11 20 16 20 11 0 -5 11 -4 25 2 14 7 25 15 25 20 0 4 8 7 19 7 10
0 24 7 31 15 7 8 16 12 21 9 5 -3 9 0 9 5 0 6 7 11 15 11 9 0 18 7 21 15 4 8
10 12 15 9 5 -3 9 0 9 5 0 6 8 11 18 11 10 0 24 9 32 19 7 11 17 18 21 16 4
-3 9 2 13 10 3 8 12 15 21 15 8 0 15 5 15 10 0 6 7 10 15 10 8 0 19 9 25 20 6
11 18 20 26 20 8 0 12 5 9 10 -3 6 1 10 9 10 9 0 16 5 16 10 0 6 8 10 18 10
14 0 15 2 2 10 -12 8 -11 10 7 10 12 0 27 9 33 20 6 11 18 20 28 20 15 0 15 2
2 10 -13 8 -12 10 3 10 25 0 52 26 34 33 -6 3 -2 6 11 6 13 1 22 7 22 17 0 8
5 12 10 9 6 -3 10 4 10 17 0 17 3 19 9 9 6 -10 12 -5 22 17 9 21 16 27 21 19
5 -8 8 -6 8 6 0 11 4 15 12 11 6 -4 8 -3 5 3 -4 6 14 31 38 57 25 25 45 51 45
57 0 6 14 24 30 39 17 15 30 33 30 40 0 6 7 18 15 27 8 8 12 20 8 26 -4 6 0 8
10 4 11 -4 17 -1 17 8 0 8 5 15 12 15 6 0 9 -3 5 -6 -3 -3 8 -20 24 -36 16
-17 29 -35 29 -40 0 -12 47 -58 59 -58 6 0 7 -7 4 -17 -4 -11 -3 -14 5 -9 7 4
12 1 12 -8 0 -10 6 -13 17 -9 9 4 14 2 11 -3 -7 -11 17 -35 26 -27 3 4 6 -1 6
-10 0 -10 8 -17 21 -17 11 0 17 -5 14 -10 -3 -5 1 -10 9 -10 9 0 16 -8 16 -17
0 -15 2 -16 10 -3 8 13 10 12 10 -3 0 -10 4 -16 9 -13 5 3 11 -1 15 -9 3 -8
18 -15 33 -16 25 0 26 -1 8 -9 -19 -8 -19 -9 3 -9 13 -1 20 -5 17 -11 -3 -5 3
-10 14 -10 12 0 21 -4 21 -10 0 -5 7 -10 16 -10 8 0 12 -4 9 -10 -4 -6 6 -10
22 -10 22 0 25 -2 13 -10 -11 -7 -11 -10 -2 -10 7 0 22 -9 34 -20 12 -11 30
-20 40 -20 11 0 16 -4 13 -10 -4 -6 5 -10 20 -10 15 0 24 -4 20 -10 -3 -5 3
-10 14 -10 12 0 21 -4 21 -10 0 -5 7 -10 16 -10 8 0 12 -4 9 -10 -3 -5 3 -10
14 -10 12 0 21 -4 21 -10 0 -5 9 -10 21 -10 11 0 17 -4 14 -10 -3 -5 3 -10 15
-10 12 0 18 -5 15 -10 -4 -6 6 -10 22 -10 17 0 34 -8 43 -20 8 -11 22 -20 32
-20 10 0 18 -4 18 -10 0 -5 10 -10 23 -10 18 0 19 -2 7 -11 -12 -9 -11 -10 7
-6 13 3 24 -1 27 -9 3 -8 12 -14 21 -14 8 0 15 -4 15 -10 0 -5 12 -10 26 -10
14 0 23 -4 19 -10 -3 -5 2 -10 12 -10 10 0 25 -9 33 -20 8 -11 22 -20 32 -20
10 0 18 -4 18 -10 0 -5 9 -10 21 -10 11 0 17 -4 14 -10 -4 -6 6 -10 22 -10 22
0 25 -2 13 -10 -12 -8 -9 -10 13 -10 16 0 26 -4 22 -10 -3 -6 4 -10 17 -10 18
0 20 -2 8 -10 -12 -7 -8 -10 15 -10 23 0 27 -3 15 -10 -12 -8 -10 -10 8 -10
13 0 20 -4 17 -10 -4 -6 -3 -10 2 -9 4 1 17 1 28 0 17 -1 18 -3 5 -11 -13 -8
-12 -10 3 -10 9 0 17 -4 17 -10 0 -5 7 -10 16 -10 9 0 12 -5 8 -12 -4 -6 -3
-8 3 -5 12 8 53 -25 53 -42 0 -7 5 -9 10 -6 6 3 10 1 10 -5 0 -6 4 -8 10 -5 5
3 10 1 10 -5 0 -15 46 -60 54 -53 3 4 6 -1 6 -11 0 -9 5 -14 10 -11 6 3 10 1
10 -5 0 -17 26 -40 35 -32 5 4 5 -1 2 -10 -5 -13 -1 -18 13 -18 14 0 18 -5 13
-17 -3 -10 -3 -15 1 -11 11 10 76 -58 76 -79 0 -15 2 -16 10 -3 8 12 10 10 10
-8 0 -13 4 -20 10 -17 6 3 10 -1 10 -9 0 -9 5 -16 10 -16 6 0 10 -10 10 -22 0
-19 2 -20 10 -8 8 12 10 11 10 -7 0 -13 5 -23 10 -23 6 0 10 -7 10 -16 0 -9
14 -29 31 -45 17 -16 25 -29 19 -29 -7 0 -3 -9 9 -19 12 -11 22 -22 22 -25 -3
-20 0 -26 9 -21 6 3 10 -3 10 -15 0 -12 5 -18 10 -15 5 3 10 -3 10 -14 0 -12
5 -21 10 -21 6 0 10 -9 10 -20 0 -11 5 -20 11 -20 5 0 8 -4 4 -9 -3 -5 2 -16
10 -24 8 -9 15 -28 15 -44 0 -17 3 -23 8 -16 6 9 11 6 21 -8 7 -12 8 -18 2
-14 -6 3 -11 -1 -11 -10 0 -9 5 -13 10 -10 6 4 10 -5 10 -19 0 -14 5 -26 10
-26 6 0 10 -11 10 -25 0 -14 5 -25 10 -25 6 0 10 -12 10 -27 0 -22 2 -25 10
-13 5 8 10 11 10 5 0 -5 -4 -17 -9 -24 -7 -10 -3 -24 12 -45 11 -16 16 -27 11
-23 -6 3 -11 0 -11 -8 0 -8 4 -12 9 -9 4 3 8 -4 8 -15 0 -10 -6 -22 -12 -24
-10 -4 -10 -6 0 -6 8 -1 12 -18 12 -51 0 -27 5 -50 10 -50 6 0 10 -46 10 -118
0 -81 4 -122 13 -131 10 -11 10 -13 0 -7 -10 6 -13 -21 -13 -121 0 -77 -4
-122 -9 -114 -6 9 -8 4 -8 -17 1 -17 5 -28 8 -26 9 5 6 -17 -3 -31 -12 -19 -7
-179 6 -187 8 -6 7 -8 -1 -8 -8 0 -13 -13 -13 -30 0 -16 4 -30 8 -30 4 0 9
-12 10 -27 1 -16 7 -29 12 -31 6 -2 10 -18 10 -35 0 -24 3 -28 10 -17 8 12 10
9 10 -12 0 -17 8 -31 20 -38 11 -6 20 -17 20 -25 0 -8 7 -15 16 -15 8 0 12 -4
9 -10 -3 -6 4 -10 17 -10 18 0 20 -2 8 -10 -12 -8 -10 -10 8 -10 13 0 20 -4
17 -10 -3 -5 1 -10 9 -10 9 0 16 -6 16 -12 0 -9 4 -8 10 2 7 11 10 11 10 2 0
-7 5 -10 10 -7 6 3 10 -1 10 -9 0 -11 9 -16 30 -16 17 0 30 -4 30 -10 0 -5 18
-10 41 -10 22 0 38 -4 35 -8 -3 -5 1 -9 9 -9 8 0 11 5 8 11 -3 6 0 5 8 -1 17
-17 53 -17 43 0 -6 10 -4 10 7 0 15 -15 33 -18 25 -5 -3 5 1 9 9 9 8 0 12 -3
10 -7 -2 -4 2 -7 10 -7 8 0 12 4 9 9 -3 4 15 8 40 8 26 0 46 5 46 11 0 5 4 8
8 5 5 -3 24 3 43 13 38 20 35 19 67 27 12 4 22 10 22 15 0 5 12 9 26 9 14 0
23 4 19 10 -3 5 1 10 10 10 9 0 23 7 32 15 8 8 19 12 25 9 7 -4 8 -2 4 4 -4 7
-1 12 6 12 8 0 20 9 28 20 8 11 20 20 28 20 7 0 20 7 29 15 8 8 19 12 25 9 7
-4 8 -2 4 4 -4 7 -1 12 8 12 9 0 16 5 16 10 0 6 7 10 16 10 8 0 12 5 9 10 -3
5 3 10 14 10 19 0 26 10 22 33 0 4 2 6 6 6 5 -1 19 -1 33 0 20 1 22 3 10 11
-13 8 -13 10 2 10 9 0 22 8 27 18 6 9 11 13 11 8 0 -4 14 6 30 24 17 18 30 27
30 21 0 -6 27 15 59 47 33 33 66 62 75 65 9 4 16 13 16 22 0 8 9 15 20 15 11
0 20 7 20 16 0 8 5 12 10 9 9 -6 14 8 11 28 0 4 2 6 6 6 19 -3 36 2 30 8 -4 3
2 13 13 20 11 8 18 19 14 24 -3 5 -2 9 3 8 20 -3 34 2 28 11 -3 6 2 10 12 10
15 0 16 2 3 10 -12 8 -12 10 5 10 13 0 25 11 34 31 10 23 16 28 22 18 7 -11 9
-9 9 5 0 10 13 32 30 47 16 16 27 29 25 29 -3 0 8 13 24 29 16 16 27 32 24 35
-6 6 13 10 30 7 5 -1 6 3 3 8 -4 5 5 21 19 35 14 14 25 30 25 36 0 6 5 8 12 4
6 -4 8 -3 4 4 -3 6 1 17 9 25 8 9 15 21 15 27 0 6 5 8 10 5 6 -3 10 3 10 15 0
12 5 18 10 15 6 -3 10 4 10 17 0 18 2 20 10 8 8 -13 10 -13 10 1 0 23 26 70
33 62 4 -3 7 7 7 23 0 22 3 26 10 14 8 -12 10 -9 10 13 0 16 4 26 10 22 9 -5
15 16 11 38 -1 5 3 6 9 2 5 -3 10 1 10 9 0 9 4 16 8 16 5 0 15 12 23 28 8 15
18 30 24 34 6 5 4 8 -4 8 -9 0 -7 6 7 19 12 10 22 23 22 29 0 17 27 62 33 55
4 -3 7 6 7 21 0 16 4 25 10 21 6 -4 10 6 10 22 0 22 2 25 10 13 8 -12 10 -11
10 8 0 12 5 22 10 22 6 0 10 11 10 25 0 14 6 28 14 31 8 3 12 12 9 20 -3 8 0
14 6 14 6 0 11 11 11 25 0 14 5 25 10 25 6 0 10 9 10 20 0 11 5 20 10 20 6 0
9 3 9 8 -4 22 2 42 11 37 12 -7 13 7 2 20 -4 6 -5 9 -3 8 8 -5 31 50 32 76 0
23 1 24 9 6 7 -16 9 -12 9 18 1 26 5 36 13 31 6 -4 8 -3 5 3 -3 5 1 22 9 38
12 23 12 30 2 37 -10 6 -10 8 0 8 6 0 12 7 12 16 0 9 5 12 13 8 7 -5 6 0 -3
11 -9 11 -10 16 -2 11 12 -7 17 10 13 43 -2 7 2 10 8 6 7 -4 11 8 11 34 0 23
5 41 10 41 6 0 10 15 10 34 0 19 5 38 11 42 8 4 7 9 -2 15 -10 6 -11 9 -1 9 7
0 12 13 12 30 0 17 5 30 10 30 6 0 10 5 10 11 0 5 -4 8 -8 5 -5 -3 -9 1 -9 9
0 8 4 12 9 9 8 -5 12 16 8 49 -1 10 4 25 10 33 10 11 10 14 -1 14 -11 0 -11 2
-2 8 7 4 13 29 14 55 1 26 7 47 13 47 6 0 4 5 -4 10 -13 8 -13 10 -1 10 12 0
12 3 3 12 -7 7 -12 17 -12 23 0 5 5 3 10 -5 10 -16 14 23 10 104 -1 21 2 36 7
33 5 -3 9 5 9 18 0 13 -4 21 -8 19 -10 -6 -11 10 -1 20 10 10 13 38 5 50 -10
17 -11 37 -1 30 5 -3 9 0 9 5 0 6 -5 11 -12 11 -9 0 -9 3 0 12 16 16 15 31 0
22 -9 -5 -9 -2 1 9 9 12 10 17 2 17 -7 0 -9 5 -4 13 10 15 12 107 2 101 -6 -3
-8 29 -10 140 0 11 -5 28 -10 39 -8 14 -8 17 0 13 6 -4 11 -2 11 3 0 6 -4 11
-10 11 -14 0 -12 27 3 33 9 4 9 6 0 6 -9 1 -13 21 -13 64 0 44 -3 58 -10 47
-13 -21 -13 -3 1 22 8 15 8 19 -1 13 -7 -4 -11 -1 -9 6 1 8 1 33 0 57 -1 32
-4 41 -13 36 -8 -5 -7 0 2 11 9 11 10 16 3 11 -10 -5 -13 4 -13 33 0 26 -5 41
-12 41 -10 0 -9 3 1 9 9 6 10 10 2 12 -7 3 -13 19 -13 36 -1 21 -5 30 -12 26
-6 -4 -5 0 2 9 7 9 9 19 4 21 -4 3 -14 28 -22 56 -8 31 -18 48 -24 44 -6 -4
-4 2 4 12 9 11 10 16 3 11 -9 -5 -13 0 -13 18 0 13 -5 26 -11 28 -6 2 -11 20
-11 41 0 20 -4 37 -9 37 -5 0 -9 7 -9 16 0 8 -4 13 -8 10 -5 -3 -9 1 -9 9 0 8
4 12 9 9 4 -3 8 0 8 5 0 6 -4 11 -10 11 -5 0 -10 9 -10 20 0 11 -5 20 -11 20
-5 0 -8 4 -4 9 3 5 -2 16 -10 24 -8 9 -15 30 -15 47 0 18 -4 29 -10 25 -6 -4
-10 7 -10 25 0 18 -4 29 -10 25 -6 -4 -10 5 -10 19 0 14 -4 26 -10 26 -5 0
-10 9 -10 20 0 11 -4 20 -10 20 -5 0 -10 7 -10 16 0 8 -6 22 -14 30 -8 7 -12
24 -9 36 4 19 3 20 -6 8 -9 -12 -11 -11 -11 8 0 13 -4 20 -10 17 -5 -3 -10 -1
-10 4 0 6 6 11 13 12 6 0 2 4 -10 9 -16 6 -23 18 -23 35 0 14 -4 25 -10 25 -5
0 -10 9 -10 21 0 11 -4 17 -10 14 -6 -4 -10 6 -10 22 0 22 -2 25 -10 13 -8
-12 -10 -10 -10 10 -1 29 -23 63 -35 52 -5 -4 -5 1 -2 11 5 12 1 17 -11 17
-11 0 -13 3 -6 8 9 5 8 11 -2 20 -8 7 -14 9 -14 5 0 -4 -8 8 -17 27 -10 19
-23 41 -30 48 -7 8 -11 17 -9 21 3 4 -4 13 -14 21 -10 8 -17 17 -14 22 3 4 -2
8 -10 8 -10 0 -16 9 -16 26 0 14 -4 23 -10 19 -6 -3 -10 4 -10 17 0 18 -2 20
-10 8 -8 -12 -10 -11 -10 8 0 13 -6 22 -16 22 -8 0 -13 4 -10 8 3 5 -4 15 -15
22 -10 8 -19 20 -19 28 0 7 -4 10 -10 7 -6 -3 -10 4 -10 17 0 18 -2 20 -10 8
-8 -12 -10 -11 -10 5 0 11 -9 27 -20 35 -14 10 -16 16 -7 22 8 5 4 8 -10 8
-14 0 -23 6 -23 16 0 8 -4 12 -10 9 -6 -3 -10 4 -10 17 0 18 -2 20 -10 8 -8
-13 -10 -12 -10 3 0 10 -4 15 -10 12 -6 -3 -10 4 -10 17 0 17 -3 19 -9 9 -6
-10 -12 -5 -22 18 -8 18 -21 31 -31 31 -11 0 -18 8 -18 20 0 14 -7 20 -22 20
-12 0 -19 3 -16 6 6 6 -35 54 -46 54 -14 0 -36 29 -36 47 0 12 -3 14 -8 6 -6
-9 -12 -7 -22 7 -8 11 -21 20 -29 20 -8 0 -12 3 -8 6 9 10 -40 54 -60 54 -15
0 -16 2 -3 10 13 8 12 10 -3 10 -10 0 -36 18 -57 40 -21 22 -43 40 -49 40 -5
0 -15 8 -20 18 -6 9 -11 13 -11 9 0 -4 -6 -2 -14 5 -8 7 -12 16 -9 21 2 4 -7
7 -21 7 -20 0 -26 5 -27 23 0 12 -3 17 -5 10 -4 -8 -16 -1 -36 18 -17 16 -40
29 -50 29 -11 0 -16 5 -13 10 3 6 -2 10 -12 10 -10 0 -25 9 -33 20 -8 11 -23
20 -33 20 -10 0 -15 5 -12 10 3 6 -1 10 -9 10 -9 0 -16 5 -16 10 0 6 -9 10
-21 10 -11 0 -17 5 -14 10 3 6 -2 10 -13 10 -10 0 -28 9 -39 19 -12 11 -24 17
-27 14 -3 -4 -6 2 -6 13 0 13 -3 15 -8 7 -6 -9 -12 -7 -22 7 -8 11 -21 20 -30
20 -9 0 -22 9 -30 20 -8 11 -20 20 -28 20 -7 0 -22 9 -34 20 -12 11 -27 20
-32 20 -6 0 -4 -5 4 -10 8 -5 10 -10 4 -10 -5 0 -20 9 -32 20 -12 11 -28 20
-37 20 -9 0 -13 5 -10 10 4 6 -5 10 -19 10 -14 0 -26 5 -26 11 0 5 -4 8 -9 4
-5 -3 -16 2 -24 10 -9 8 -23 15 -31 15 -9 0 -16 5 -16 10 0 6 -9 10 -20 10
-11 0 -20 5 -20 10 0 6 -15 10 -32 10 -25 0 -29 3 -18 10 11 7 7 10 -17 10
-18 0 -33 5 -33 10 0 6 -12 10 -26 10 -14 0 -23 4 -19 10 4 6 -5 10 -20 10
-14 0 -24 4 -21 8 2 4 -7 9 -22 10 -15 1 -28 7 -30 12 -2 6 -18 10 -35 10 -24
0 -28 3 -17 10 12 8 9 10 -13 10 -16 0 -35 7 -43 15 -8 8 -22 11 -31 8 -11 -4
-14 -3 -9 5 6 11 -19 18 -46 13 -5 0 -8 4 -8 9 0 6 -12 10 -26 10 -14 0 -32 7
-41 15 -8 8 -19 13 -24 10 -5 -4 -9 -1 -9 4 0 6 -14 11 -31 11 -17 0 -28 4
-24 10 5 8 -31 15 -57 11 -5 0 -8 4 -8 9 0 6 -13 10 -30 10 -16 0 -30 5 -30
10 0 6 -9 10 -19 10 -11 0 -23 5 -27 11 -3 6 -17 9 -31 6 -13 -2 -30 2 -38 9
-10 11 -15 11 -18 1 -4 -9 -6 -9 -6 1 -1 6 -13 12 -27 12 -16 0 -23 4 -18 12
4 6 3 8 -3 5 -5 -3 -22 0 -37 8 -14 8 -24 10 -21 5 4 -6 -1 -10 -10 -10 -10 0
-13 5 -9 13 5 7 0 6 -11 -3 -11 -9 -16 -10 -11 -2 5 8 -2 12 -23 12 -17 0 -31
5 -31 10 0 6 -16 10 -36 10 -19 0 -33 4 -30 8 2 4 -11 9 -31 10 -20 2 -45 8
-56 13 -14 8 -18 8 -13 0 4 -6 2 -11 -3 -11 -6 0 -11 5 -11 10 0 6 -18 10 -41
10 -24 0 -38 4 -34 10 3 6 1 10 -4 10 -6 0 -11 -6 -11 -12 0 -8 -3 -9 -8 -3
-10 14 -55 39 -47 26 3 -6 1 -11 -4 -11 -6 0 -11 5 -11 11 0 6 -14 9 -32 8
-18 -2 -32 1 -31 7 2 14 -40 15 -49 1 -6 -9 -8 -9 -8 1 0 7 -15 12 -41 12 -29
0 -38 3 -33 13 5 7 0 6 -11 -3 -10 -8 -16 -10 -12 -4 4 7 -11 11 -45 13 -29 1
-56 7 -60 14 -6 9 -8 8 -8 -3 0 -12 -2 -13 -9 -1 -7 11 -9 11 -14 0 -4 -10 -6
-10 -6 -1 -1 7 -17 12 -43 12 -32 0 -39 3 -28 10 8 5 10 10 5 10 -6 0 -16 -5
-23 -12 -9 -9 -12 -9 -12 0 0 8 -21 12 -64 12 -42 0 -66 4 -69 13 -4 10 -6 10
-6 0 -1 -7 -6 -13 -12 -13 -5 0 -7 6 -3 13 5 7 0 6 -11 -3 -11 -9 -16 -10 -11
-2 5 9 -7 12 -51 12 -41 0 -54 3 -43 10 13 8 12 10 -2 10 -10 0 -18 -6 -18
-12 0 -10 -2 -10 -8 -1 -5 8 -29 12 -65 10 -39 -1 -56 2 -53 9 6 14 -56 14
-66 -1 -5 -6 -8 -6 -8 3 0 8 -16 12 -45 12 -25 0 -45 5 -45 10 0 6 -7 10 -15
10 -8 0 -15 -6 -15 -12 0 -10 -2 -10 -9 0 -4 8 -11 13 -15 13 -3 -1 -29 -1
-57 -1 -37 0 -48 3 -43 13 6 9 4 9 -8 -1 -13 -10 -17 -10 -21 0 -4 10 -6 10
-6 1 -1 -7 -6 -13 -12 -13 -5 0 -7 5 -4 10 3 6 2 10 -4 10 -5 0 -12 -6 -14
-12 -4 -10 -6 -10 -6 0 -1 8 -19 12 -55 12 -30 0 -58 5 -61 10 -5 8 -12 7 -23
-2 -12 -10 -14 -10 -8 0 4 7 1 12 -9 12 -9 0 -13 -5 -10 -11 4 -6 -3 -5 -14 3
-18 11 -23 11 -31 -2 -7 -11 -10 -12 -10 -2 0 9 -10 12 -28 11 -15 -2 -33 0
-40 4 -6 5 -12 5 -12 0 0 -4 -5 -1 -10 7 -6 10 -10 11 -10 3 0 -7 -5 -13 -11
-13 -5 0 -8 4 -5 8 3 5 -1 9 -9 9 -8 0 -12 -3 -10 -7 2 -4 -2 -7 -10 -7 -8 0
-12 4 -9 9 3 4 1 8 -5 8 -5 0 -12 -6 -14 -12 -4 -10 -6 -10 -6 0 -1 6 -8 12
-17 12 -9 0 -12 -5 -8 -12 6 -10 4 -10 -7 0 -7 6 -26 12 -42 12 -15 0 -26 4
-23 8 3 5 -1 9 -9 9 -8 0 -12 -4 -9 -9 3 -4 -5 -8 -18 -8 -18 0 -20 2 -8 10
13 8 13 10 -2 10 -9 0 -19 -6 -21 -12 -4 -10 -6 -10 -6 0 -1 8 -20 12 -59 12
-33 0 -64 5 -71 13 -11 10 -13 10 -7 0 5 -9 0 -13 -13 -13 -12 0 -21 6 -21 13
0 8 -4 7 -10 -3 -8 -12 -10 -12 -10 -1 0 11 -3 11 -15 1 -10 -9 -15 -9 -15 -1
0 7 -20 11 -50 11 -27 0 -50 5 -50 10 0 6 -30 10 -69 10 -46 0 -71 4 -74 13
-4 10 -6 10 -6 0 -1 -7 -6 -13 -12 -13 -5 0 -7 6 -3 13 5 7 0 6 -11 -3 -11 -9
-16 -10 -11 -2 5 9 -10 12 -63 12 -39 0 -71 4 -71 8 0 5 -26 10 -57 11 -32 1
-60 7 -64 13 -5 7 -8 7 -13 0 -3 -6 -15 -10 -26 -9 -10 1 -16 5 -14 9 3 4 -11
8 -31 8 -26 0 -34 3 -29 13 5 7 0 6 -11 -3 -11 -9 -16 -10 -11 -2 4 6 3 12 -3
12 -5 0 -12 -6 -14 -12 -4 -10 -6 -10 -6 0 -1 7 -16 12 -42 12 -22 0 -38 4
-35 8 2 4 -4 8 -14 8 -10 0 -16 -4 -14 -8 3 -4 0 -8 -5 -8 -6 0 -11 5 -11 10
0 6 -16 10 -35 10 -19 0 -35 5 -35 11 0 6 -10 10 -22 9 -49 -4 -69 0 -62 13 5
8 2 8 -9 -2 -12 -9 -17 -10 -17 -2 0 7 -8 11 -17 10 -34 -3 -44 1 -37 14 5 8
2 8 -9 -2 -11 -9 -17 -10 -17 -2 0 6 -17 11 -40 11 -22 0 -40 5 -40 10 0 6 -7
10 -16 10 -8 0 -13 -4 -10 -9 4 -5 -5 -4 -18 2 -13 7 -22 16 -18 22 3 5 -1 4
-10 -3 -11 -9 -18 -10 -23 -2 -3 5 -15 10 -26 10 -14 0 -18 4 -13 13 5 8 2 8
-9 -2 -11 -9 -17 -10 -17 -2 0 6 -14 11 -31 11 -17 0 -28 4 -24 10 4 6 -8 10
-29 10 -19 0 -36 5 -38 11 -2 5 -11 11 -20 13 -10 1 -21 5 -24 9 -4 4 -18 7
-31 7 -12 0 -23 5 -23 10 0 6 -13 10 -30 10 -16 0 -30 5 -30 10 0 6 -9 10 -20
10 -11 0 -20 5 -20 10 0 6 -9 10 -20 10 -11 0 -20 5 -20 11 0 5 -4 7 -10 4 -5
-3 -10 0 -10 7 0 11 -2 10 -9 0 -7 -11 -9 -11 -14 2 -4 9 -13 16 -20 16 -21 0
-77 30 -77 41 0 6 -4 7 -10 4 -5 -3 -10 -1 -10 4 0 6 -7 11 -16 11 -8 0 -12 5
-9 10 3 6 -1 10 -10 10 -8 0 -29 14 -47 30 -17 17 -37 30 -45 30 -8 0 -11 5
-8 10 3 6 1 10 -6 10 -6 0 -20 10 -30 22 -11 12 -19 16 -19 8 0 -8 -8 -4 -19
8 -10 12 -23 22 -29 22 -7 0 -9 7 -5 17 4 11 3 14 -5 9 -7 -4 -12 -2 -12 3 0
6 -10 11 -22 12 -13 0 -18 3 -11 6 10 3 10 7 0 18 -7 7 -15 11 -19 8 -5 -2 -8
3 -8 11 0 9 -7 16 -17 16 -9 0 -14 3 -10 6 7 8 -38 54 -53 54 -6 0 -9 4 -6 8
3 5 -4 15 -15 22 -10 8 -19 24 -20 35 0 11 -3 14 -6 8 -6 -17 -33 9 -33 32 0
9 -4 13 -10 10 -6 -4 -10 6 -10 22 0 22 -2 25 -10 13 -8 -13 -10 -12 -10 3 0
10 -5 15 -10 12 -6 -4 -10 -3 -9 2 4 21 -2 34 -13 27 -8 -5 -9 -2 -5 9 4 12 1
17 -11 18 -10 0 -12 3 -4 6 8 3 3 13 -15 31 -16 15 -29 34 -31 41 -2 8 -11 22
-21 30 -9 9 -20 24 -24 34 -3 9 -13 17 -22 17 -8 0 -14 3 -14 8 1 4 1 14 0 22
-1 13 -2 13 -11 0 -8 -12 -10 -10 -10 8 0 13 -4 20 -10 17 -5 -3 -10 2 -11 12
0 10 -3 13 -6 6 -2 -7 -10 -13 -15 -13 -6 0 -8 3 -5 6 10 11 -65 74 -88 74
-12 0 -27 6 -34 13 -11 10 -13 10 -7 0 4 -8 1 -13 -8 -13 -9 0 -16 5 -16 10 0
6 -5 10 -11 10 -5 0 -8 -4 -5 -8 3 -5 -1 -9 -9 -9 -8 0 -12 3 -10 7 2 4 -2 7
-10 7 -8 0 -12 -4 -9 -9 8 -13 -10 -10 -25 5 -11 10 -13 10 -7 0z m1353 -1029
c-3 -3 -12 -4 -19 -1 -8 3 -5 6 6 6 11 1 17 -2 13 -5z m5640 -1420 c-3 -3 -12
-4 -19 -1 -8 3 -5 6 6 6 11 1 17 -2 13 -5z"/>
<path d="M15261 4444 c0 -11 3 -14 6 -6 3 7 2 16 -1 19 -3 4 -6 -2 -5 -13z"/>
</g>
</svg>
